<svg xmlns="http://www.w3.org/2000/svg" width="449.637" height="83.58" viewBox="0 0 449.637 83.58">
  <g id="logo_w_white" transform="translate(-1641.479 -794)">
    <rect id="사각형_995" data-name="사각형 995" width="10.47" height="7.62" transform="translate(1758.022 829.336)" fill="#fff"/>
    <path id="패스_8852" data-name="패스 8852" d="M165.41,44.414H154.94v.039A10.469,10.469,0,0,1,134,44.413H123.537a20.91,20.91,0,0,0,31.4,18.113v2.631h0a10.466,10.466,0,0,1-20.74,2l-9.628,4.491a20.933,20.933,0,0,0,40.834-6.491Z" transform="translate(1634.485 791.486)" fill="#fff"/>
    <rect id="사각형_996" data-name="사각형 996" width="10.469" height="62.868" transform="translate(1688.691 794)" fill="#fff"/>
    <path id="패스_8853" data-name="패스 8853" d="M31.406,43.194a10.468,10.468,0,0,1-20.937.041v-.081a10.468,10.468,0,0,1,20.937.041m10.465,0A20.927,20.927,0,0,0,.089,41.447H0v35.4H10.47V61.306a20.91,20.91,0,0,0,31.4-18.112" transform="translate(1641.479 792.74)" fill="#fff"/>
    <path id="패스_8854" data-name="패스 8854" d="M133.5,37.336a20.935,20.935,0,0,0-14.445-19.9l-4.49,9.628a10.466,10.466,0,0,1,8.47,10.27Z" transform="translate(1634.994 793.013)" fill="#fff"/>
    <path id="패스_8855" data-name="패스 8855" d="M98.469,43.194h-.006c0,.009,0,.018,0,.026a9.528,9.528,0,1,1,0-.026m10.463.03c0-.01,0-.02,0-.03a20.985,20.985,0,1,0-5.2,13.783,20.912,20.912,0,0,0,9.179,6.116l4.49-9.629a10.464,10.464,0,0,1-8.467-10.24" transform="translate(1637.683 792.74)" fill="#fff"/>
    <path id="패스_8856" data-name="패스 8856" d="M271.355,51.2l-10.7-28.534h-10.37L239.586,51.2A21.962,21.962,0,0,1,252.4,44.65l3.073-8.2,3.064,8.194a21.96,21.96,0,0,1,12.82,6.547" transform="translate(1627.915 792.717)" fill="#fff"/>
    <path id="패스_8857" data-name="패스 8857" d="M275.786,65.525a20.726,20.726,0,0,0-41.195,0h10.5a10.361,10.361,0,0,1,20.2,0Z" transform="translate(1628.198 791.333)" fill="#fff"/>
    <path id="패스_8858" data-name="패스 8858" d="M190.478,22.662h10.363L216.4,47.55l.018-24.887h10.352V64.141H216.42l-15.59-24.887.011,24.887H190.478Z" transform="translate(1630.695 792.717)" fill="#fff"/>
    <path id="패스_8859" data-name="패스 8859" d="M315.02,22.662,304.65,39.253,294.28,22.662H283.91V64.141h10.37V39.253l10.4,16.592L315.02,39.253V64.141h10.37V22.662Z" transform="translate(1625.406 792.717)" fill="#fff"/>
    <path id="패스_8860" data-name="패스 8860" d="M438.148,22.662h10.363L464.073,47.55l.018-24.887h10.352V64.141H464.09L448.5,39.253l.011,24.887H438.148Z" transform="translate(1616.674 792.717)" fill="#fff"/>
    <path id="패스_8861" data-name="패스 8861" d="M370.329,64.153l-10.37-16.591L349.59,64.153H339.22V22.674h10.37V47.561l10.4-16.592,10.342,16.592V22.674H380.7V64.153Z" transform="translate(1622.275 792.717)" fill="#fff"/>
    <path id="패스_8862" data-name="패스 8862" d="M409.575,53.765a10.37,10.37,0,1,0-10.37-10.37,10.369,10.369,0,0,0,10.37,10.37m0-31.1A20.734,20.734,0,1,1,388.841,43.4a20.734,20.734,0,0,1,20.734-20.734" transform="translate(1619.465 792.717)" fill="#fff"/>
    <path id="패스_8863" data-name="패스 8863" d="M172.7,25.289c.51,0,.7.2.7.683s-.193.7-.712.7h-.933V25.568a.262.262,0,0,1,.259-.278Zm-1.029-1.126c-.857,0-1.318.4-1.318,1.212v4.552h1.4V27.791h.4a1.856,1.856,0,0,1,.972,1.058l.491,1.068h1.434l-.607-1.328a2.316,2.316,0,0,0-.674-.914,1.68,1.68,0,0,0,1.077-1.7c0-1.184-.683-1.809-1.953-1.809Zm-2.955,3.07a3.821,3.821,0,1,1,3.821,3.821,3.812,3.812,0,0,1-3.821-3.821m-.789,0a4.61,4.61,0,1,0,4.609-4.571,4.583,4.583,0,0,0-4.609,4.571" transform="translate(1631.973 792.717)" fill="#fff"/>
    <path id="패스_8864" data-name="패스 8864" d="M312.463,75.8c.962,0,1.627.425,1.627.962v.2c0,.538-.665.962-1.627.962s-1.627-.425-1.627-.962v-.2c0-.538.665-.962,1.627-.962m-4.16,5.632c1.146,0,2.165,0,3.085-.014v1.7h1.769V81.392a34.234,34.234,0,0,0,3.594-.212l-.127-1.486c-1.854.17-3.991.241-8.321.241Zm3.934,2.193h-1.8v3.552h8.972V85.651h-7.174Zm2.575-.325h2.6v.976H319.2V74.118h-1.783v7.74h-2.6Zm-2.349-3.92c1.868,0,3.311-.948,3.311-2.321v-.4c0-1.373-1.443-2.321-3.311-2.321s-3.311.948-3.311,2.321v.4c0,1.373,1.443,2.321,3.311,2.321M294.82,80.613a48.887,48.887,0,0,0,7.2-.325l-.17-1.5a40.2,40.2,0,0,1-5.236.3V74.811h-1.8Zm9.877-6.5h-1.783v7.3H304.7v-3h1.726V76.863H304.7Zm-6.41,9.382h4.641v2.292h-4.641Zm-1.769,3.778H304.7V82.014h-8.179Zm-8.628-6.453h4.217V80.2H287.89Zm-10.044-.807a4.034,4.034,0,0,0,1,1.316c.637.651,1.472,1.472,2.307,2.236l.41-.41c-.962-.877-1.84-1.726-2.519-2.462a2.838,2.838,0,0,1-.92-2.5V75.222h-.637v2.972a3.19,3.19,0,0,1-.976,2.745A26.285,26.285,0,0,1,274,83.4l.41.439a31.041,31.041,0,0,0,2.236-2.179,5.311,5.311,0,0,0,1.189-1.641Zm6.5-5.731h-.608V87.108h.608Zm-14.2,6.141h-7.769V76.014h7.641v-.552h-8.25v5.519h3.792V84.66h-5.6V85.2h11.8V84.66h-5.59V80.981h3.976Zm-17.318-1.118a14.771,14.771,0,0,0,.354-3.34V74.91h-6.184v.538h5.59v.679a14.275,14.275,0,0,1-.34,3.113Zm3.4,2.689V78.491h2.038v-.566h-2.038V74.288h-.594V82Zm-10.075-.807a68.605,68.605,0,0,0,8.363-.311l-.057-.552a46,46,0,0,1-4.755.283V77.6H249.1v3.028c-.849.014-1.811.014-2.957.014Zm6.24,1.882c1.868,0,3.354.637,3.354,1.67v.509c0,1.033-1.486,1.67-3.354,1.67s-3.354-.637-3.354-1.67v-.509c0-1.033,1.486-1.67,3.354-1.67m0,4.4c2.307,0,3.962-.849,3.962-2.193v-.566c0-1.344-1.656-2.193-3.962-2.193s-3.962.849-3.962,2.193v.566c0,1.344,1.656,2.193,3.962,2.193m-13.425-8a14.774,14.774,0,0,0,.354-3.34v-1.16h-6.184v.538h5.589V76.3a14.277,14.277,0,0,1-.34,3.113Zm-6.679,2.094a68.6,68.6,0,0,0,8.363-.311l-.057-.552A45.121,45.121,0,0,1,235.87,81V77.925h-.594v3.085c-.849.014-1.84.014-3,.014Zm2.858,1.6h-.608v3.764H242.7v-.566h-7.571Zm7.217.623V79.028h2.038v-.566h-2.038V74.288h-.594V83.8Zm-24,1.4h11.8V84.66h-11.8Zm10.2-3.354v-.538h-7.741V78.9H228.4v-.538h-7.585V75.972H228.5v-.538h-8.278v6.41Zm-22.78-5.788H210.3V83.1h-4.528Zm10.882,3.113h-2.292V74.288h-.608V87.108h.608V79.736h2.292Zm-5.745-3.679h-5.745V83.67h5.745Zm-14.36,3.085c.141.368.552.877,1.656,1.613.892.594,2.292,1.387,3.156,1.84l.325-.481c-1.443-.75-2.278-1.245-2.957-1.684-1.528-.991-1.868-1.316-1.868-2.972V75.42h-.651v1.472c0,1.656-.34,1.981-1.868,2.972-.679.439-1.514.934-2.957,1.684l.325.481c.863-.453,2.264-1.245,3.156-1.84,1.132-.75,1.542-1.245,1.67-1.613ZM190.624,85.2h11.8V84.66h-11.8Z" transform="translate(1630.688 789.805)" fill="#fff"/>
    <rect id="사각형_997" data-name="사각형 997" width="449.636" height="83.579" transform="translate(1641.479 794)" fill="none"/>
  </g>
</svg>
