<svg xmlns="http://www.w3.org/2000/svg" width="98.772" height="80.586" viewBox="0 0 98.772 80.586">
  <g id="그룹_615" data-name="그룹 615" transform="translate(0 0.5)">
    <g id="사각형_472" data-name="사각형 472" transform="translate(0 12.114)" fill="none" stroke="#f4e402" stroke-width="6">
      <rect width="98.772" height="67.972" rx="5" stroke="none"/>
      <rect x="3" y="3" width="92.772" height="61.972" rx="2" fill="none"/>
    </g>
    <ellipse id="타원_174" data-name="타원 174" cx="3.717" cy="3.858" rx="3.717" ry="3.858" transform="translate(73.283 24.577)" fill="#f4e402"/>
    <g id="패스_1385" data-name="패스 1385" transform="translate(28.772 24.577)" fill="none">
      <path d="M20.693,0A20.693,20.693,0,1,1,0,20.693,20.693,20.693,0,0,1,20.693,0Z" stroke="none"/>
      <path d="M 20.69348907470703 6.000003814697266 C 12.59146499633789 6.000003814697266 5.999996185302734 12.59147262573242 5.999996185302734 20.69348526000977 C 5.999996185302734 28.79549789428711 12.59146499633789 35.38696670532227 20.69348907470703 35.38696670532227 C 28.79551315307617 35.38696670532227 35.38698196411133 28.79549789428711 35.38698196411133 20.69348526000977 C 35.38698196411133 12.59147262573242 28.79551315307617 6.000003814697266 20.69348907470703 6.000003814697266 M 20.69348907470703 3.814697265625e-06 C 32.12218475341797 3.814697265625e-06 41.38698196411133 9.264789581298828 41.38698196411133 20.69348526000977 C 41.38698196411133 32.12217712402344 32.12218475341797 41.38696670532227 20.69348907470703 41.38696670532227 C 9.264793395996094 41.38696670532227 -3.814697265625e-06 32.12217712402344 -3.814697265625e-06 20.69348526000977 C -3.814697265625e-06 9.264789581298828 9.264793395996094 3.814697265625e-06 20.69348907470703 3.814697265625e-06 Z" stroke="none" fill="#f4e402"/>
    </g>
    <g id="그룹_614" data-name="그룹 614" transform="translate(25.14 0)">
      <g id="그룹_24596" data-name="그룹 24596" transform="translate(0)">
        <path id="패스_1386" data-name="패스 1386" d="M4.7,16.4,0,13.426,4.926,4.983A10,10,0,0,1,13.466,0H34.6a9.982,9.982,0,0,1,8.593,5.075l4.85,8.357-4.708,2.96L38.472,8.014A4.5,4.5,0,0,0,34.6,5.724H13.466a4.5,4.5,0,0,0-3.844,2.24Z" transform="translate(0 0)" fill="#f4e402" stroke="#f4e402" stroke-width="1"/>
      </g>
    </g>
  </g>
</svg>
