<svg xmlns="http://www.w3.org/2000/svg" xmlns:xlink="http://www.w3.org/1999/xlink" width="76.823" height="137.489" viewBox="0 0 76.823 137.489">
  <defs>
    <linearGradient id="linear-gradient" x1="0.5" x2="0.5" y2="1" gradientUnits="objectBoundingBox">
      <stop offset="0" stop-color="#00c1a9"/>
      <stop offset="0.357" stop-color="#2fccb9"/>
      <stop offset="1" stop-color="#00c1a9" stop-opacity="0"/>
    </linearGradient>
  </defs>
  <g id="ico_flicking" transform="translate(-2485.754 -488.512)">
    <g id="그룹_24599" data-name="그룹 24599" transform="translate(2486.768 526.379)">
      <g id="그룹_24600" data-name="그룹 24600" transform="translate(0 0)">
        <path id="패스_27900" data-name="패스 27900" d="M76.6,322.706a7.876,7.876,0,0,0-4.709,1.557,7.911,7.911,0,0,0-12.381-4.4,7.912,7.912,0,0,0-12.076-4.62l-.06-15.687a7.917,7.917,0,1,0-15.833,0v39.693L26,332.113a9.107,9.107,0,0,0-15.349,9.639,1.72,1.72,0,0,0,.1.275l12.591,25.434a44.184,44.184,0,0,0,6.5,11.24c5.985,7.513,13.552,11.491,21.883,11.507q.91.048,1.8.048a27.423,27.423,0,0,0,19.26-7.384c7.262-6.848,11.284-17.991,11.689-32.307a1.8,1.8,0,0,0,.036-.357V330.623a7.926,7.926,0,0,0-7.917-7.917M14.256,341.055c-1.674-3.3-1.251-5.86,1.16-7.732a5.542,5.542,0,0,1,7.767.979l8.739,11.258c.029.037.06.07.091.1s.065.07.1.1a1.732,1.732,0,0,0,.174.144c.023.016.045.034.068.048a1.77,1.77,0,0,0,.251.137l.058.024a1.786,1.786,0,0,0,.3.092l.014,0a1.811,1.811,0,0,0,.358.038,1.767,1.767,0,0,0,.348-.039l.015,0a1.787,1.787,0,0,0,.312-.1l.026-.012a1.8,1.8,0,0,0,.282-.153l.012-.008c.032-.022.067-.04.1-.064a1.743,1.743,0,0,0,.137-.13l.037-.035a1.763,1.763,0,0,0,.194-.235l.019-.027a1.805,1.805,0,0,0,.149-.274l.013-.031a1.731,1.731,0,0,0,.094-.3c0-.01,0-.021.007-.031a1.78,1.78,0,0,0,.034-.333s0-.009,0-.014v-.034c0-.033,0-.065,0-.1V299.552a4.345,4.345,0,1,1,8.69.007s.141,22.389.119,23.677V341.4a1.786,1.786,0,1,0,3.572,0V321.814a4.345,4.345,0,1,1,8.691,0v18.869a1.786,1.786,0,1,0,3.571,0l.059-13.758c0-.379.059-.486.059-.707a4.345,4.345,0,1,1,8.691,0c0,.013,0,.026,0,.039l.118,5.334v11.785a1.786,1.786,0,1,0,3.571,0V332.411c.005-.063,0-.867,0-.867v-.921a4.345,4.345,0,1,1,8.691,0V348.5c-.061,14.3-3.728,25.286-10.6,31.77-4.835,4.559-11.218,6.759-18.466,6.366-.032,0-.064,0-.1,0-17.54,0-25.031-20.279-25.1-20.482a1.837,1.837,0,0,0-.082-.192Z" transform="translate(-9.707 -291.635)" fill="#fff" stroke="#fff" stroke-width="2"/>
      </g>
    </g>
    <g id="그룹_24601" data-name="그룹 24601" transform="translate(2520.235 488.512)">
      <rect id="사각형_6528" data-name="사각형 6528" width="8.074" height="49.341" rx="4" transform="translate(12.493 2.947)" fill="url(#linear-gradient)"/>
      <rect id="사각형_6529" data-name="사각형 6529" width="7.158" height="24.727" rx="3.579" transform="translate(12.267 4.601) rotate(-40)" fill="#15c6b0"/>
      <rect id="사각형_6530" data-name="사각형 6530" width="7.158" height="24.727" rx="3.579" transform="translate(5.483 23.543) rotate(-140)" fill="#15c6b0"/>
    </g>
  </g>
</svg>
