<svg id="그룹_3457" data-name="그룹 3457" xmlns="http://www.w3.org/2000/svg" xmlns:xlink="http://www.w3.org/1999/xlink" width="522.257" height="97.547" viewBox="0 0 522.257 97.547">
  <defs>
    <clipPath id="clip-path">
      <rect id="사각형_1568" data-name="사각형 1568" width="522.257" height="97.547" fill="none"/>
    </clipPath>
  </defs>
  <g id="그룹_3456" data-name="그룹 3456" clip-path="url(#clip-path)">
    <path id="패스_1538" data-name="패스 1538" d="M36.479,46.575a12.159,12.159,0,0,1-24.318.047v-.094a12.159,12.159,0,0,1,24.318.047m12.155,0A24.307,24.307,0,0,0,.1,44.545H0V85.66H12.161V67.612A24.287,24.287,0,0,0,48.634,46.575" transform="translate(0 2.131)" fill="#474fe0"/>
    <path id="패스_1539" data-name="패스 1539" d="M160.017,44.976h0v.045a12.159,12.159,0,0,1-24.317,0h0V38.532H123.537v6.493h0a24.286,24.286,0,0,0,36.474,20.989v3.056h0a12.157,12.157,0,0,1-24.09,2.324L124.743,76.61a24.313,24.313,0,0,0,47.43-7.54V44.977H160.017Z" transform="translate(11.829 3.689)" fill="#474fe0"/>
    <path id="패스_1540" data-name="패스 1540" d="M136.557,40.55a24.316,24.316,0,0,0-16.778-23.112l-5.216,11.183A12.157,12.157,0,0,1,124.4,40.55Z" transform="translate(10.97 1.67)" fill="#474fe0"/>
    <path id="패스_1541" data-name="패스 1541" d="M103.542,46.575h-.007c0,.011,0,.021,0,.031a11.057,11.057,0,1,1,0-.031m12.153.035c0-.012,0-.023,0-.035a24.374,24.374,0,1,0-6.044,16.009,24.29,24.29,0,0,0,10.662,7.1L125.529,58.5a12.155,12.155,0,0,1-9.834-11.893" transform="translate(6.421 2.131)" fill="#ffcc4f"/>
    <path id="패스_1542" data-name="패스 1542" d="M276.487,55.8,264.059,22.662H252.014L239.586,55.8a25.509,25.509,0,0,1,14.881-7.6l3.569-9.52L261.6,48.2a25.506,25.506,0,0,1,14.891,7.6" transform="translate(22.941 2.17)" fill="#474fe0"/>
    <path id="패스_1543" data-name="패스 1543" d="M282.439,68.5a24.074,24.074,0,0,0-47.848,0h12.19a12.035,12.035,0,0,1,23.467,0Z" transform="translate(22.462 4.51)" fill="#ffcc4f"/>
    <path id="패스_1544" data-name="패스 1544" d="M190.478,22.662h12.037l18.074,28.907.021-28.907h12.024V70.84H220.61L202.5,41.933l.013,28.907H190.478Z" transform="translate(18.239 2.17)" fill="#474fe0"/>
    <path id="패스_1545" data-name="패스 1545" d="M320.044,22.662,308,41.933,295.955,22.662H283.91V70.84h12.044V41.933l12.077,19.272,12.012-19.272V70.84h12.044V22.662Z" transform="translate(27.185 2.17)" fill="#474fe0"/>
    <path id="패스_1546" data-name="패스 1546" d="M438.148,22.662h12.037l18.074,28.907.021-28.907H480.3V70.84H468.28L450.172,41.933l.013,28.907H438.148Z" transform="translate(41.953 2.17)" fill="#474fe0"/>
    <path id="패스_1547" data-name="패스 1547" d="M375.354,70.852,363.309,51.581,351.264,70.852H339.22V22.674h12.044V51.581l12.076-19.272,12.013,19.272V22.674H387.4V70.852Z" transform="translate(32.481 2.171)" fill="#474fe0"/>
    <path id="패스_1548" data-name="패스 1548" d="M412.923,58.789a12.044,12.044,0,1,0-12.044-12.045,12.044,12.044,0,0,0,12.044,12.045m0-36.127a24.083,24.083,0,1,1-24.082,24.082,24.083,24.083,0,0,1,24.082-24.082" transform="translate(37.232 2.17)" fill="#ffcc4f"/>
    <path id="패스_1549" data-name="패스 1549" d="M191.161,78.341h3.189a4.015,4.015,0,0,1,1.31.192,2.554,2.554,0,0,1,.922.53,2.144,2.144,0,0,1,.544.811,2.818,2.818,0,0,1,.179,1.014v.26a2.7,2.7,0,0,1-.192,1.019,2.368,2.368,0,0,1-.562.834,2.668,2.668,0,0,1-.92.569,3.573,3.573,0,0,1-1.28.21h-1.965v3.472h-1.224Zm1.224,1.063v3.311h1.755q1.928,0,1.927-1.594V80.9a1.349,1.349,0,0,0-.463-1.131,2.106,2.106,0,0,0-1.328-.365Z" transform="translate(18.304 7.501)" fill="#474fe0"/>
    <rect id="사각형_1567" data-name="사각형 1567" width="1.199" height="9.343" transform="translate(223.012 85.409)" fill="#474fe0"/>
    <path id="패스_1550" data-name="패스 1550" d="M213.734,87.174a2.441,2.441,0,0,1-1.626-.506,1.734,1.734,0,0,1-.6-1.4v-.334a1.842,1.842,0,0,1,.582-1.409,2.7,2.7,0,0,1,1.878-.543h1.718V82.59a1.374,1.374,0,0,0-.328-1.008,1.468,1.468,0,0,0-1.068-.328,2.648,2.648,0,0,0-1.032.185,5.771,5.771,0,0,0-.908.494l-.594-.889a5.676,5.676,0,0,1,1.112-.6,3.762,3.762,0,0,1,1.434-.254,3.552,3.552,0,0,1,1.038.142,2.32,2.32,0,0,1,.81.42,1.957,1.957,0,0,1,.531.68,2.093,2.093,0,0,1,.192.908v4.734h-1.15v-.816h-.013a1.316,1.316,0,0,1-.265.341,1.882,1.882,0,0,1-.365.265,2.587,2.587,0,0,1-.586.229,3.119,3.119,0,0,1-.76.08M215.687,84h-1.693a1.5,1.5,0,0,0-1.008.272.966.966,0,0,0-.3.755V85.2a.788.788,0,0,0,.346.717,1.5,1.5,0,0,0,.828.221,2.51,2.51,0,0,0,.773-.105,1.927,1.927,0,0,0,.6-.314,1.079,1.079,0,0,0,.352-.426,1.575,1.575,0,0,0,.105-.625Z" transform="translate(20.252 7.678)" fill="#474fe0"/>
    <path id="패스_1551" data-name="패스 1551" d="M225.906,85.705l1.78-5.4h1.26l-3.51,9.555-1.087-.384.877-2.311L222.766,80.3h1.3l1.793,5.4Z" transform="translate(21.33 7.689)" fill="#474fe0"/>
    <path id="패스_1552" data-name="패스 1552" d="M246.011,78.342l4.437,7.552c.049.082.113.2.192.358s.142.287.192.394v-8.3h.531v8.911h-.742L246.184,79.7c-.066-.115-.134-.242-.2-.382s-.129-.264-.18-.37v8.3h-.531V78.342Z" transform="translate(23.485 7.501)" fill="#474fe0"/>
    <path id="패스_1553" data-name="패스 1553" d="M260.031,87.16a2.856,2.856,0,0,1-.854-.124,1.911,1.911,0,0,1-.679-.365,1.749,1.749,0,0,1-.451-.593,1.89,1.89,0,0,1-.167-.822v-.185a1.88,1.88,0,0,1,.129-.7,1.461,1.461,0,0,1,.408-.569,2.072,2.072,0,0,1,.7-.382,3.116,3.116,0,0,1,1-.142h2.014v-.8a1.638,1.638,0,0,0-.438-1.236,1.842,1.842,0,0,0-1.317-.421,2.864,2.864,0,0,0-1.019.18,4.531,4.531,0,0,0-.934.488l-.26-.408a4.5,4.5,0,0,1,1-.525,3.5,3.5,0,0,1,1.248-.217,2.367,2.367,0,0,1,1.644.545,2,2,0,0,1,.606,1.569v4.61h-.531v-.927h-.012a2.188,2.188,0,0,1-.272.365,1.617,1.617,0,0,1-.421.328,2.779,2.779,0,0,1-1.4.334m2.1-3.424h-2a2.6,2.6,0,0,0-.8.106,1.412,1.412,0,0,0-.525.283,1.028,1.028,0,0,0-.284.421,1.5,1.5,0,0,0-.088.513v.2a1.393,1.393,0,0,0,.149.679,1.292,1.292,0,0,0,.377.438,1.486,1.486,0,0,0,.519.241,2.313,2.313,0,0,0,.586.075,3.42,3.42,0,0,0,.618-.055,2.092,2.092,0,0,0,.581-.2,1.615,1.615,0,0,0,.631-.543,1.3,1.3,0,0,0,.234-.742Z" transform="translate(24.692 7.692)" fill="#474fe0"/>
    <path id="패스_1554" data-name="패스 1554" d="M278.118,87.061h-.531V82.686a3.388,3.388,0,0,0-.08-.767,1.564,1.564,0,0,0-.266-.593,1.165,1.165,0,0,0-.494-.377,2.019,2.019,0,0,0-.778-.13,1.781,1.781,0,0,0-.847.186,1.94,1.94,0,0,0-.581.45,1.758,1.758,0,0,0-.334.562,1.587,1.587,0,0,0-.105.519v4.523h-.531V82.686a3.4,3.4,0,0,0-.08-.767,1.566,1.566,0,0,0-.266-.593,1.155,1.155,0,0,0-.5-.377,2.073,2.073,0,0,0-.786-.13,1.741,1.741,0,0,0-.846.192,1.886,1.886,0,0,0-.575.469,1.984,1.984,0,0,0-.328.582,1.638,1.638,0,0,0-.105.525v4.474h-.53V80.473h.518v1.014a2.195,2.195,0,0,1,.241-.37,2.013,2.013,0,0,1,.389-.371,2.176,2.176,0,0,1,.563-.289,2.228,2.228,0,0,1,.759-.118,2.048,2.048,0,0,1,1.292.365,1.854,1.854,0,0,1,.637.908,2.322,2.322,0,0,1,.779-.9,2.228,2.228,0,0,1,1.321-.377,2.3,2.3,0,0,1,.976.185,1.738,1.738,0,0,1,.637.489,1.881,1.881,0,0,1,.346.7,3.16,3.16,0,0,1,.105.815Z" transform="translate(25.81 7.692)" fill="#474fe0"/>
    <path id="패스_1555" data-name="패스 1555" d="M292.037,80.462h.519l-1.842,6.588h-.519L288.28,81.1l-1.854,5.944h-.556l-1.879-6.588h.543l1.62,5.946,1.854-5.946h.531l1.915,5.946Z" transform="translate(27.193 7.704)" fill="#474fe0"/>
    <path id="패스_1556" data-name="패스 1556" d="M300.875,80.337a2.571,2.571,0,0,1,2,.779,3.15,3.15,0,0,1,.71,2.2v.865a3.15,3.15,0,0,1-.71,2.2,2.948,2.948,0,0,1-3.993,0,3.15,3.15,0,0,1-.71-2.2v-.865a3.15,3.15,0,0,1,.71-2.2,2.571,2.571,0,0,1,2-.779m0,6.365a2.085,2.085,0,0,0,1.588-.617,2.678,2.678,0,0,0,.587-1.9v-.865a2.676,2.676,0,0,0-.587-1.9,2.345,2.345,0,0,0-3.175,0,2.675,2.675,0,0,0-.587,1.9v.865a2.678,2.678,0,0,0,.587,1.9,2.085,2.085,0,0,0,1.588.617" transform="translate(28.55 7.692)" fill="#474fe0"/>
    <path id="패스_1557" data-name="패스 1557" d="M315.185,87.061h-.531V82.686a2.078,2.078,0,0,0-.414-1.366,1.761,1.761,0,0,0-1.428-.5,2.057,2.057,0,0,0-.92.192,2.219,2.219,0,0,0-.649.469,1.929,1.929,0,0,0-.383.582,1.429,1.429,0,0,0-.124.525v4.474h-.53V80.473h.518v1.014a1.707,1.707,0,0,1,.265-.37,2.327,2.327,0,0,1,.446-.371,2.6,2.6,0,0,1,.63-.289,2.7,2.7,0,0,1,.834-.118,2.8,2.8,0,0,1,1.057.18,1.85,1.85,0,0,1,.71.489,1.919,1.919,0,0,1,.4.7,2.726,2.726,0,0,1,.124.815Z" transform="translate(29.703 7.692)" fill="#474fe0"/>
    <path id="패스_1558" data-name="패스 1558" d="M335.045,86.288a2.24,2.24,0,0,0,1.428-.384,1.144,1.144,0,0,0,.476-.915v-.2a1.274,1.274,0,0,0-.1-.519,1,1,0,0,0-.334-.394,2.582,2.582,0,0,0-.6-.316,6.135,6.135,0,0,0-.915-.254,11.3,11.3,0,0,1-1.175-.314,3.534,3.534,0,0,1-.939-.458,2.047,2.047,0,0,1-.624-.691,2.073,2.073,0,0,1-.229-1.019V80.6a2.193,2.193,0,0,1,.185-.884,2.128,2.128,0,0,1,.569-.759,2.911,2.911,0,0,1,.958-.539,4.015,4.015,0,0,1,1.341-.2,5.235,5.235,0,0,1,1.484.2A4.562,4.562,0,0,1,337.8,79l-.582.952a3.617,3.617,0,0,0-1-.483,4.055,4.055,0,0,0-1.125-.147,2.2,2.2,0,0,0-1.341.37,1.094,1.094,0,0,0-.5.9v.2a.965.965,0,0,0,.136.526,1.192,1.192,0,0,0,.4.377,2.8,2.8,0,0,0,.642.278c.255.078.548.153.878.229a7.652,7.652,0,0,1,1.378.425,3.2,3.2,0,0,1,.883.55,1.794,1.794,0,0,1,.476.693,2.386,2.386,0,0,1,.142.84v.222a2.2,2.2,0,0,1-.9,1.847,2.889,2.889,0,0,1-1.007.47,4.976,4.976,0,0,1-1.268.155,4.87,4.87,0,0,1-1.749-.3,4.974,4.974,0,0,1-1.353-.746l.618-1a4.6,4.6,0,0,0,.569.358,5.988,5.988,0,0,0,.655.3,4.617,4.617,0,0,0,.674.2,2.939,2.939,0,0,0,.624.073" transform="translate(31.781 7.489)" fill="#474fe0"/>
    <path id="패스_1559" data-name="패스 1559" d="M353.809,87.074h-1.2V83.021q0-1.744-1.273-1.743a1.747,1.747,0,0,0-.562.093,1.489,1.489,0,0,0-.5.285,1.456,1.456,0,0,0-.365.494,1.658,1.658,0,0,0-.141.71v4.214h-1.2V83.021q0-1.744-1.273-1.743a1.88,1.88,0,0,0-.563.087,1.47,1.47,0,0,0-.5.272,1.409,1.409,0,0,0-.365.477,1.548,1.548,0,0,0-.141.686v4.276h-1.2V80.314h1.187v.915h.013a1.724,1.724,0,0,1,.648-.742,2.072,2.072,0,0,1,1.156-.3,2.314,2.314,0,0,1,1.18.289,1.871,1.871,0,0,1,.76.835,2.691,2.691,0,0,1,.81-.81,2.348,2.348,0,0,1,1.291-.314,2.131,2.131,0,0,1,1.644.637,2.554,2.554,0,0,1,.594,1.81Z" transform="translate(32.989 7.678)" fill="#474fe0"/>
    <path id="패스_1560" data-name="패스 1560" d="M362.024,87.174a2.442,2.442,0,0,1-1.626-.506,1.734,1.734,0,0,1-.6-1.4v-.334a1.842,1.842,0,0,1,.582-1.409,2.7,2.7,0,0,1,1.878-.543h1.718V82.59a1.374,1.374,0,0,0-.328-1.008,1.468,1.468,0,0,0-1.068-.328,2.648,2.648,0,0,0-1.032.185,5.773,5.773,0,0,0-.908.494l-.594-.889a5.678,5.678,0,0,1,1.112-.6,3.761,3.761,0,0,1,1.434-.254,3.551,3.551,0,0,1,1.038.142,2.32,2.32,0,0,1,.81.42,1.96,1.96,0,0,1,.531.68,2.1,2.1,0,0,1,.192.908v4.734h-1.15v-.816H364a1.313,1.313,0,0,1-.265.341,1.882,1.882,0,0,1-.365.265,2.588,2.588,0,0,1-.586.229,3.119,3.119,0,0,1-.76.08M363.977,84h-1.693a1.5,1.5,0,0,0-1.008.272.965.965,0,0,0-.3.755V85.2a.788.788,0,0,0,.346.717,1.5,1.5,0,0,0,.828.221,2.51,2.51,0,0,0,.773-.105,1.927,1.927,0,0,0,.6-.314,1.08,1.08,0,0,0,.352-.426,1.576,1.576,0,0,0,.105-.625Z" transform="translate(34.451 7.678)" fill="#474fe0"/>
    <path id="패스_1561" data-name="패스 1561" d="M375.473,81.489a1.915,1.915,0,0,0-.377-.117,2.128,2.128,0,0,0-.451-.043,1.6,1.6,0,0,0-.637.129,1.516,1.516,0,0,0-.525.37,1.849,1.849,0,0,0-.358.574,1.909,1.909,0,0,0-.136.73v3.943h-1.2V80.315h1.161V81.39h.012a2.32,2.32,0,0,1,.772-.883,2.163,2.163,0,0,1,1.217-.316,2.905,2.905,0,0,1,.878.136Z" transform="translate(35.6 7.678)" fill="#474fe0"/>
    <path id="패스_1562" data-name="패스 1562" d="M382.534,81.479h-1.112V80.452h1.112V78.747h1.2v1.705h1.779v1.027h-1.779v3.844a1.688,1.688,0,0,0,.061.5.616.616,0,0,0,.18.289.651.651,0,0,0,.278.137,1.574,1.574,0,0,0,.346.037,2.6,2.6,0,0,0,.89-.161l.185.964a2.979,2.979,0,0,1-.557.155,3.665,3.665,0,0,1-.7.068,1.874,1.874,0,0,1-1.421-.482,2.13,2.13,0,0,1-.457-1.508Z" transform="translate(36.522 7.54)" fill="#474fe0"/>
    <path id="패스_1563" data-name="패스 1563" d="M404.616,87.252v-8.4H401.65v-.506h6.477v.506h-2.966v8.4Z" transform="translate(38.459 7.501)" fill="#474fe0"/>
    <path id="패스_1564" data-name="패스 1564" d="M415.964,80.337a2.571,2.571,0,0,1,2,.779,3.15,3.15,0,0,1,.71,2.2v.865a3.149,3.149,0,0,1-.71,2.2,2.947,2.947,0,0,1-3.993,0,3.149,3.149,0,0,1-.71-2.2v-.865a3.149,3.149,0,0,1,.71-2.2,2.571,2.571,0,0,1,2-.779m0,6.365a2.085,2.085,0,0,0,1.588-.617,2.678,2.678,0,0,0,.587-1.9v-.865a2.676,2.676,0,0,0-.587-1.9,2.345,2.345,0,0,0-3.175,0,2.675,2.675,0,0,0-.587,1.9v.865a2.678,2.678,0,0,0,.587,1.9,2.084,2.084,0,0,0,1.588.617" transform="translate(39.57 7.692)" fill="#474fe0"/>
    <path id="패스_1565" data-name="패스 1565" d="M425.224,80.462h.531v4.351a3.616,3.616,0,0,0,.056.61,1.638,1.638,0,0,0,.229.606,1.34,1.34,0,0,0,.512.465,1.944,1.944,0,0,0,.922.185,2.169,2.169,0,0,0,1.618-.655,2.051,2.051,0,0,0,.39-.557,1.186,1.186,0,0,0,.129-.469V80.462h.531V87.05h-.518V86.011a1.329,1.329,0,0,1-.242.328,2.364,2.364,0,0,1-.457.371,3.066,3.066,0,0,1-.642.308,2.326,2.326,0,0,1-.786.131,2.833,2.833,0,0,1-1.087-.181,1.8,1.8,0,0,1-.7-.488,1.814,1.814,0,0,1-.376-.7,2.954,2.954,0,0,1-.112-.822Z" transform="translate(40.716 7.704)" fill="#474fe0"/>
    <path id="패스_1566" data-name="패스 1566" d="M440.315,80.981a1.748,1.748,0,0,0-.353-.093,2.752,2.752,0,0,0-.438-.031,1.724,1.724,0,0,0-.828.192,1.7,1.7,0,0,0-.593.525,2.4,2.4,0,0,0-.353.791,3.989,3.989,0,0,0-.117.988v3.708H437.1V80.474h.519v1.273a2.173,2.173,0,0,1,.253-.514,2,2,0,0,1,.971-.771,1.983,1.983,0,0,1,.717-.124,3.067,3.067,0,0,1,.5.037,2.233,2.233,0,0,1,.413.112Z" transform="translate(41.853 7.692)" fill="#474fe0"/>
    <path id="패스_1567" data-name="패스 1567" d="M447.387,79.217h-.631v-.729h.631Zm-.05,8.021h-.531V80.65h.531Z" transform="translate(42.778 7.515)" fill="#474fe0"/>
    <path id="패스_1568" data-name="패스 1568" d="M456.722,86.69a3.006,3.006,0,0,0,.834-.105,2.043,2.043,0,0,0,.613-.278,1.229,1.229,0,0,0,.377-.408.986.986,0,0,0,.129-.482v-.161a1.258,1.258,0,0,0-.105-.55.9.9,0,0,0-.345-.365,2.584,2.584,0,0,0-.637-.259q-.4-.112-.99-.222a6.152,6.152,0,0,1-.852-.216,2.761,2.761,0,0,1-.667-.322,1.283,1.283,0,0,1-.594-1.143v-.2a1.476,1.476,0,0,1,.142-.637,1.419,1.419,0,0,1,.433-.525,2.246,2.246,0,0,1,.717-.353,3.424,3.424,0,0,1,.995-.129,4.264,4.264,0,0,1,1.335.185,3.016,3.016,0,0,1,.866.421l-.222.382a3.336,3.336,0,0,0-.958-.413,4.766,4.766,0,0,0-1.07-.105,2.215,2.215,0,0,0-1.285.314,1.01,1.01,0,0,0-.445.872v.16a.882.882,0,0,0,.141.506,1.1,1.1,0,0,0,.39.347,2.7,2.7,0,0,0,.586.229c.227.06.472.116.736.165a9.451,9.451,0,0,1,1.044.248,2.425,2.425,0,0,1,.717.34,1.24,1.24,0,0,1,.408.494,1.815,1.815,0,0,1,.129.735v.222a1.386,1.386,0,0,1-.2.742,1.716,1.716,0,0,1-.525.538,2.523,2.523,0,0,1-.76.328,3.544,3.544,0,0,1-.89.112,4.2,4.2,0,0,1-1.4-.222,3.79,3.79,0,0,1-1.051-.545l.26-.42a4.168,4.168,0,0,0,1.019.518,3.366,3.366,0,0,0,1.119.2" transform="translate(43.502 7.692)" fill="#474fe0"/>
    <path id="패스_1569" data-name="패스 1569" d="M474.259,87.061h-.531V82.686a3.392,3.392,0,0,0-.08-.767,1.567,1.567,0,0,0-.266-.593,1.166,1.166,0,0,0-.494-.377,2.02,2.02,0,0,0-.778-.13,1.781,1.781,0,0,0-.847.186,1.942,1.942,0,0,0-.581.45,1.762,1.762,0,0,0-.334.562,1.588,1.588,0,0,0-.105.519v4.523h-.531V82.686a3.4,3.4,0,0,0-.08-.767,1.566,1.566,0,0,0-.266-.593,1.156,1.156,0,0,0-.5-.377,2.073,2.073,0,0,0-.786-.13,1.742,1.742,0,0,0-.846.192,1.887,1.887,0,0,0-.575.469,1.987,1.987,0,0,0-.328.582,1.639,1.639,0,0,0-.105.525v4.474h-.53V80.473h.518v1.014a2.207,2.207,0,0,1,.241-.37,2.01,2.01,0,0,1,.389-.371,2.173,2.173,0,0,1,.563-.289,2.228,2.228,0,0,1,.759-.118,2.047,2.047,0,0,1,1.292.365,1.853,1.853,0,0,1,.637.908,2.322,2.322,0,0,1,.779-.9,2.228,2.228,0,0,1,1.321-.377,2.3,2.3,0,0,1,.976.185,1.738,1.738,0,0,1,.637.489,1.883,1.883,0,0,1,.346.7,3.163,3.163,0,0,1,.1.815Z" transform="translate(44.591 7.692)" fill="#474fe0"/>
    <path id="패스_1570" data-name="패스 1570" d="M173.466,25.714c.593,0,.816.234.816.793s-.224.815-.827.815h-1.084V26.037a.3.3,0,0,1,.3-.323Zm-1.2-1.308c-.995,0-1.531.469-1.531,1.408V31.1h1.632V28.62h.469a2.155,2.155,0,0,1,1.129,1.229l.571,1.24h1.666l-.7-1.543a2.69,2.69,0,0,0-.782-1.062,1.952,1.952,0,0,0,1.251-1.978c0-1.375-.793-2.1-2.268-2.1Zm-3.432,3.566a4.438,4.438,0,1,1,4.438,4.438,4.428,4.428,0,0,1-4.438-4.438m-.916,0a5.354,5.354,0,1,0,5.354-5.309,5.323,5.323,0,0,0-5.354,5.309" transform="translate(16.079 2.17)" fill="#474fe0"/>
  </g>
</svg>
