<svg xmlns="http://www.w3.org/2000/svg" width="40.012" height="56.182" viewBox="0 0 40.012 56.182">
  <g id="ico_food_pop_way" transform="translate(0.075 0.075)">
    <path id="패스_8867" data-name="패스 8867" d="M19.931,50.652l7.238-10.246C31.42,34.4,36.69,26.966,36.69,19.927a16.759,16.759,0,0,0-33.518,0c0,7.039,5.27,14.474,9.521,20.473,2.249,3.434,4.858,6.881,7.238,10.253M8.765,56.028a1.586,1.586,0,1,1,0-3.172h8.857c-2.454-3.539-4.941-7.287-7.508-10.624C5.6,35.86,0,27.963,0,19.927a19.931,19.931,0,0,1,39.862,0c0,8.036-5.6,15.933-10.114,22.305l-7.5,10.624H31.1a1.586,1.586,0,1,1,0,3.172Z" transform="translate(0 0.004)" stroke="#000" stroke-width="0.15"/>
    <path id="패스_8868" data-name="패스 8868" d="M410.614,401.147a9.521,9.521,0,1,1-9.522,9.521,9.525,9.525,0,0,1,9.522-9.521m0,3.172a6.349,6.349,0,1,0,6.35,6.349,6.348,6.348,0,0,0-6.35-6.349" transform="translate(-390.683 -390.737)" stroke="#000" stroke-width="0.15"/>
  </g>
</svg>
