<svg xmlns="http://www.w3.org/2000/svg" width="84.147" height="99.118" viewBox="0 0 84.147 99.118">
  <g id="그룹_24668" data-name="그룹 24668" transform="translate(-1128.591 -1367.72)">
    <g id="ico_camera" transform="translate(1128.591 1398.61)">
      <g id="사각형_472" data-name="사각형 472" transform="translate(0 10.32)" fill="none" stroke="#f4e402" stroke-width="6">
        <rect width="84.147" height="57.908" rx="5" stroke="none"/>
        <rect x="3" y="3" width="78.147" height="51.908" rx="2" fill="none"/>
      </g>
      <ellipse id="타원_174" data-name="타원 174" cx="3.167" cy="3.287" rx="3.167" ry="3.287" transform="translate(62.432 20.938)" fill="#f4e402"/>
      <g id="패스_1385" data-name="패스 1385" transform="translate(24.512 20.938)" fill="none">
        <path d="M17.629,0A17.629,17.629,0,1,1,0,17.629,17.629,17.629,0,0,1,17.629,0Z" stroke="none"/>
        <path d="M 17.62944984436035 5.999994277954102 C 11.21694946289062 5.999994277954102 5.999994277954102 11.21694946289062 5.999994277954102 17.62944984436035 C 5.999994277954102 24.04195022583008 11.21694946289062 29.2588939666748 17.62944984436035 29.2588939666748 C 24.04195022583008 29.2588939666748 29.2588939666748 24.04195022583008 29.2588939666748 17.62944984436035 C 29.2588939666748 11.21694946289062 24.04195022583008 5.999994277954102 17.62944984436035 5.999994277954102 M 17.62944984436035 -3.814697265625e-06 C 27.36591720581055 -3.814697265625e-06 35.25889587402344 7.892972946166992 35.25889587402344 17.62944984436035 C 35.25889587402344 27.36591720581055 27.36591720581055 35.25889587402344 17.62944984436035 35.25889587402344 C 7.892972946166992 35.25889587402344 -3.814697265625e-06 27.36591720581055 -3.814697265625e-06 17.62944984436035 C -3.814697265625e-06 7.892972946166992 7.892972946166992 -3.814697265625e-06 17.62944984436035 -3.814697265625e-06 Z" stroke="none" fill="#f4e402"/>
      </g>
      <g id="그룹_614" data-name="그룹 614" transform="translate(21.418 0)">
        <g id="그룹_24596" data-name="그룹 24596" transform="translate(0)">
          <path id="패스_1386" data-name="패스 1386" d="M4.005,13.969,0,11.438,4.2,4.245A8.517,8.517,0,0,1,11.472,0h18A8.5,8.5,0,0,1,36.8,4.324l4.132,7.119-4.011,2.521L32.775,6.827a3.831,3.831,0,0,0-3.3-1.951h-18A3.835,3.835,0,0,0,8.2,6.785Z" transform="translate(0 0)" fill="#f4e402" stroke="#fff" stroke-width="1"/>
        </g>
      </g>
    </g>
    <g id="그룹_24651" data-name="그룹 24651" transform="matrix(0.999, -0.035, 0.035, 0.999, -40.427, 45.649)">
      <path id="패스_67828" data-name="패스 67828" d="M-10496.739,4446.128a3,3,0,0,1-2.3-1.064c-.354-.418-8.817-10.222-22.211-8.236-5,.895-8.337,2.589-14.189,7.238a3,3,0,0,1-4.215-.483,3,3,0,0,1,.482-4.215c6.6-5.24,10.875-7.375,16.955-8.461,16.872-2.5,27.339,9.78,27.776,10.3a3,3,0,0,1-.375,4.215A2.986,2.986,0,0,1-10496.739,4446.128Z" transform="translate(11682.022 -3063.998)" fill="#f4e402"/>
      <path id="선_495" data-name="선 495" d="M2.155,15.463l-5.81-1.5L.892-3.654l5.81,1.5Z" transform="translate(1140.883 1366.606)" fill="#f4e402"/>
      <path id="선_496" data-name="선 496" d="M15.39,8.072-3.771,1.943l1.828-5.715L17.218,2.358Z" transform="translate(1140.883 1379.678)" fill="#f4e402"/>
    </g>
  </g>
</svg>
