<svg xmlns="http://www.w3.org/2000/svg" xmlns:xlink="http://www.w3.org/1999/xlink" width="543" height="543" viewBox="0 0 543 543">
  <defs>
    <clipPath id="clip-path">
      <ellipse id="타원_168" data-name="타원 168" cx="271.364" cy="271.43" rx="271.364" ry="271.43" fill="#fbf82b"/>
    </clipPath>
    <clipPath id="clip-path-2">
      <rect id="사각형_461" data-name="사각형 461" width="345.368" height="432.749" fill="none"/>
    </clipPath>
  </defs>
  <g id="img_ar_gender_man" transform="translate(0.272)">
    <path id="패스_1381" data-name="패스 1381" d="M271.364,0c149.87,0,271.364,121.523,271.364,271.43S421.234,542.86,271.364,542.86,0,421.336,0,271.43,121.494,0,271.364,0Z" transform="translate(0 0)" fill="#53678e"/>
    <g id="그룹_10" data-name="그룹 10" transform="translate(-0.272 0.14)" clip-path="url(#clip-path)">
      <g id="그룹_605" data-name="그룹 605" transform="translate(103.915 126.743)">
        <g id="그룹_604" data-name="그룹 604" transform="translate(0 0)" clip-path="url(#clip-path-2)">
          <path id="패스_1365" data-name="패스 1365" d="M278.971,311.285s-10.193,35.767,23.343,45.68c.813.24,1.691.688,2.488.978,28.768,10.483-69.979,142.174-69.979,142.174s-99.55-131.234-70.667-142.174c.59-.224,1.745-.759,2.488-.978,33.537-9.913,23.343-45.68,23.343-45.68Z" transform="translate(-61.795 -120.966)" fill="#fff"/>
          <path id="패스_1366" data-name="패스 1366" d="M304.573,111.318c-15.506,57.363-129.288,57.749-143.292,0-9.1-37.536-14.481-89.447,27.439-94.578C196.4,5.452,211.879.7,232.927.071c81.277-2.446,86.006,58.122,71.646,111.247" transform="translate(-60.243 0)"/>
          <path id="패스_1367" data-name="패스 1367" d="M307.487,128.925c0,51.786-30.671,100.478-68.5,100.478s-68.5-48.692-68.5-100.478,1.432-101.545,68.5-101.545c68.5,0,68.5,49.759,68.5,101.545" transform="translate(-66.298 -10.64)" fill="#fff"/>
          <path id="패스_1368" data-name="패스 1368" d="M387.594,215.678c13.539,11.048,12.718-17.247,15.133-26.257,1.505-5.622,5.661-13.231,2.65-18.969-4.432-8.446-11.124-.987-14.734,4.457Z" transform="translate(-150.733 -64.758)" fill="#f7f7f7"/>
          <path id="패스_1369" data-name="패스 1369" d="M165.563,215.678c-13.54,11.048-12.718-17.247-15.132-26.257-1.506-5.622-5.661-13.231-2.65-18.969,4.432-8.446,11.124-.987,14.734,4.457Z" transform="translate(-57.056 -64.758)" fill="#f7f7f7"/>
          <path id="패스_1370" data-name="패스 1370" d="M288.344,27.14c-29.986-16.875-74.471-13.833-92.365-.669-4.635.608-11,3.058-19.677,9.057,0,0-16.516,60.43-7.53,78.832.532-2.172,2.9,24.127,4.395,21.175,1.726-21.93,9.55-45.948,17.153-55.067,10.463-12.55,21.958-24.052,26.5-27.377,9.929,9.942,24.886,51.036,63.034,46.76,2.714-.3-14.184-13.037-11.408-13.451.892-.133,19.274,5.158,27.38,18.505,3.654,6.017,7.394,33.465,7.394,33.465s2.566-31.971,2.566-25.508c-.192,1.011,30.527-58.729-17.438-85.722" transform="translate(-64.638 -6.033)"/>
          <path id="패스_1371" data-name="패스 1371" d="M305.359,404.257c-20.688-8.724-45.313-11.8-62.352-16.657,0,0-12.329,33.056-65.656,64.548-52.216-34.177-74.99-64.548-74.99-64.548-17.038,4.858-41.665,7.933-62.352,16.657C23.363,407.783,0,419.681,0,458.034V583.371H60.606l2.733-44.849,4.49,44.849h209.71l4.49-44.849,2.732,44.849h60.606V458.034c0-38.353-23.362-50.251-40.009-53.777" transform="translate(0 -150.622)" fill="#97c1bf"/>
          <path id="합치기_4" data-name="합치기 4" d="M0,29.973,8.5,14.561l9.968,4.105L42.838,0l-.913,3.168,1.4-2.575s-5.839,35.861-28.435,54.54L12.6,59.3C.651,51.479,0,29.973,0,29.973Z" transform="translate(110.074 43.385)"/>
        </g>
      </g>
    </g>
    <text id="남성" transform="translate(271.364 491.4)" font-size="56" font-family="Pretendard-Light, Pretendard" font-weight="300"><tspan x="-48.384" y="0">남성</tspan></text>
  </g>
</svg>
