<svg id="img_ar_gender_woman" xmlns="http://www.w3.org/2000/svg" xmlns:xlink="http://www.w3.org/1999/xlink" width="543" height="543" viewBox="0 0 543 543">
  <defs>
    <clipPath id="clip-path">
      <path id="패스_1357" data-name="패스 1357" d="M272.2,0C421.98,0,542.4,121.42,542.4,271.2S420.98,542.4,271.2,542.4,0,420.98,0,271.2,122.42,0,272.2,0Z" transform="translate(0)" fill="#fbf82b"/>
    </clipPath>
    <clipPath id="clip-path-2">
      <rect id="사각형_459" data-name="사각형 459" width="292.854" height="432.505" fill="none"/>
    </clipPath>
  </defs>
  <path id="패스_1380" data-name="패스 1380" d="M271.5,0C421.445,0,543,121.555,543,271.5S421.445,543,271.5,543,0,421.446,0,271.5,121.555,0,271.5,0Z" transform="translate(0 0)" fill="#53678e"/>
  <g id="마스크_그룹_9" data-name="마스크 그룹 9" transform="translate(0 0)" clip-path="url(#clip-path)">
    <g id="그룹_601" data-name="그룹 601" transform="translate(128.886 126.173)">
      <g id="그룹_600" data-name="그룹 600" clip-path="url(#clip-path-2)">
        <path id="패스_1351" data-name="패스 1351" d="M261.846,100.733C259.3,87.9,266.66,32.3,217.355,9.223,207.525,4.624,189.692-1.252,179,.236c-10.693-1.487-28.526,4.388-38.355,8.987C91.34,32.3,98.7,87.9,96.153,100.733c-2.528,12.731-4.321,102-5.7,122.175-2.1,13.106-15.37,42.182-12.731,44.4,27.952,23.442,76.6-8.77,101.281-11.1,26.855,2.53,101.934,25.243,92.748-27.822-5.867-44.1-7.373-114.923-9.9-127.654" transform="translate(-32.542 0)"/>
        <path id="패스_1352" data-name="패스 1352" d="M272.949,335.735c-37.525-6.4-55.645-12.827-70.259-54.423-7.464-21.247-47.511-21.247-54.975,0-14.613,41.6-32.734,48.025-70.259,54.423h-.131L175.2,507.7l97.877-171.96Z" transform="translate(-28.776 -98.758)" fill="#f7f7f7"/>
        <path id="패스_1353" data-name="패스 1353" d="M244.3,377.311c-50.061,32.548-148.294,31.963-195.755,0,0,0-48.549-7.014-48.549,59.623V572.839H48.549l4.5-52.608,9.206,52.608H230.6l9.207-52.608,4.5,52.608h48.549V436.934c0-66.637-48.549-59.623-48.549-59.623" transform="translate(0 -140.334)" fill="#d6b3c5"/>
        <path id="패스_1354" data-name="패스 1354" d="M259.107,138.787c0,45.689-28.461,82.727-63.569,82.727-24.681,0-46.077-18.3-56.692-45.263a102.752,102.752,0,0,1-6.877-37.463c0-45.688,28.461-82.727,63.569-82.727s63.569,37.039,63.569,82.727" transform="translate(-49.111 -20.862)" fill="#f7f7f7"/>
        <path id="패스_1355" data-name="패스 1355" d="M169.758,43.451c-1.437,3.893,16.442,47.616,65.436,65.9,3.859,1.441-7.489-10.092-7.7-19.674,5.023,7.952,27.91,30.651,60.625,27.5,0,0,1.315-49.532-26.3-68.733s-81.537-33.511-92.06-5" transform="translate(-63.144 -10.182)"/>
        <path id="패스_1356" data-name="패스 1356" d="M180.577,63.2s-19.177,55.552-59.36,63.289c0,0,21.3-87.89,40.359-92.311s19,29.022,19,29.022" transform="translate(-45.11 -12.568)"/>
      </g>
    </g>
  </g>
  <text id="여성" transform="translate(271.2 487.541)" font-size="56" font-family="Pretendard-Light, Pretendard" font-weight="300"><tspan x="-48.384" y="0">여성</tspan></text>
</svg>
