<svg xmlns="http://www.w3.org/2000/svg" xmlns:xlink="http://www.w3.org/1999/xlink" width="543" height="543" viewBox="0 0 543 543">
  <defs>
    <clipPath id="clip-path">
      <path id="패스_6739" data-name="패스 6739" d="M271.5-1C421.445-1,543,121.222,543,270.761S421.445,541.525,271.5,541.525,0,420.3,0,270.761,121.555-1,271.5-1Z" transform="translate(0 1)" fill="#b5a591"/>
    </clipPath>
    <clipPath id="clip-path-2">
      <rect id="사각형_7056" data-name="사각형 7056" width="30.326" height="20.478" fill="none"/>
    </clipPath>
    <clipPath id="clip-path-3">
      <rect id="사각형_7057" data-name="사각형 7057" width="25.818" height="24.737" fill="none"/>
    </clipPath>
  </defs>
  <g id="img_ar_gender_age_kid_w" transform="translate(0 1.735)">
    <path id="패스_1381" data-name="패스 1381" d="M270.33,0c149.3,0,270.33,121.031,270.33,270.33S419.63,540.661,270.33,540.661,0,419.63,0,270.33,121.031,0,270.33,0Z" fill="#5a8b97"/>
    <rect id="사각형_7054" data-name="사각형 7054" width="176.359" height="195.121" rx="88" transform="translate(186.834 238.692)"/>
    <rect id="사각형_7055" data-name="사각형 7055" width="176.359" height="191.368" rx="88" transform="translate(186.834 231.452)"/>
    <path id="패스_1351" data-name="패스 1351" d="M270.037,99.125c-1.37-9.568,9.628-66.767-43.208-91.089C216.3,3.19,214.247,1.5,181.715-.448c-12.829.188-31.024,5.7-41.557,10.55C87.323,34.422,93.706,93.15,92.481,106.561c-1.2,17.658,9.537,50.356,18.475,58.78,32.7,30.816,58.093,25.974,86.866,23.306,28.778,2.666-16.189,6.214,13.032,1.942,3.075-2.9,20.139-7.769,34.354-18.645,21.718-15.925,24.822-62.36,24.822-62.36" transform="translate(93.781 232.884)"/>
    <path id="패스_1354" data-name="패스 1354" d="M275.195,136.861c0,17.636-1.8,34.855-10.563,48.559-12.734,19.919-37.122,32.242-61.05,32.242-24.679,0-47.187-10.379-60.32-32.242-7.5-12.488-11.293-31.78-11.293-48.559,0-44.624,32.062-80.8,71.613-80.8s71.613,36.176,71.613,80.8" transform="translate(71.459 199.872)" fill="#f7f7f7"/>
    <path id="패스_1355" data-name="패스 1355" d="M169.724,51.7c-.038.1,4.891,40.371,21.317,50.861,17.8,11.371,50.8-5.488,59.636,1.015,32.1,23.64,26.169,22.2,36.625,31.223,0,0,10.668-57.168-18.927-77.744-11.482-7.983-26.518-32.416-42.634-36.585-24.1-6.227-49.116,12.523-56.016,31.221" transform="translate(61.235 224.386)"/>
    <path id="패스_1356" data-name="패스 1356" d="M184.411,65.1a281.071,281.071,0,0,0-36.96,36.262c-9.784,11.991-13.8,12.281-25.76,25.154,0,0-.283-34.184,9.741-61.416,7.61-20.683,23.611-29.011,32.619-31.1" transform="translate(77.986 232.617)"/>
    <rect id="사각형_459" data-name="사각형 459" width="313.82" height="356.613" transform="translate(117.911 184.652)" fill="none"/>
    <ellipse id="타원_203" data-name="타원 203" cx="84.427" cy="18.835" rx="84.427" ry="18.835" transform="translate(187.193 302.207)"/>
    <rect id="사각형_7053" data-name="사각형 7053" width="71.294" height="54.409" transform="translate(239.443 389.893)" fill="#f7f7f7"/>
    <g id="마스크_그룹_867" data-name="마스크 그룹 867" transform="translate(0 -1.735)" clip-path="url(#clip-path)">
      <path id="패스_6738" data-name="패스 6738" d="M118.326,0c61.4,0,108.551,53.139,119.889,115.279l13.763,95.893H-9.521l8.091-95.893C5.048,52.332,56.924,0,118.326,0Z" transform="translate(156.573 415.388)" fill="#d6b3c5"/>
    </g>
    <ellipse id="타원_204" data-name="타원 204" cx="35.647" cy="10.319" rx="35.647" ry="10.319" transform="translate(239.443 404.031)" fill="#f7f7f7"/>
    <g id="그룹_21534" data-name="그룹 21534" transform="translate(259.947 221.759)">
      <g id="그룹_21533" data-name="그룹 21533" clip-path="url(#clip-path-2)">
        <path id="패스_6741" data-name="패스 6741" d="M15.163,20.97S.78,8,0,2.681c0,0,9.535,3.126,15.163,18.289" transform="translate(0 -0.493)"/>
        <path id="패스_6742" data-name="패스 6742" d="M18.574,18.289S32.955,5.315,33.737,0c0,0-9.535,3.126-15.163,18.289" transform="translate(-7.163)"/>
      </g>
    </g>
    <g id="그룹_21536" data-name="그룹 21536" transform="translate(321.614 287.274)">
      <g id="그룹_21535" data-name="그룹 21535" transform="translate(0 0)" clip-path="url(#clip-path-3)">
        <path id="패스_6743" data-name="패스 6743" d="M3.887,23.226S-6.942.909,7.555,0c0,0,10.293-.775,6.713,11.606,0,0,10.741-3.377,11.546,4.863,0,0,.8,12.5-21.929,6.743" transform="translate(0.001 -0.004)" fill="#d6b3c5"/>
      </g>
    </g>
    <text id="Kid" transform="translate(226.61 502.712)" font-size="56" font-family="Pretendard-Light, Pretendard" font-weight="300"><tspan x="0" y="0">여아</tspan></text>
  </g>
</svg>
