<svg xmlns="http://www.w3.org/2000/svg" width="122.291" height="122.291" viewBox="0 0 122.291 122.291">
  <g id="그룹_24624" data-name="그룹 24624" transform="translate(-337.822 -1710.982)">
    <circle id="타원_187" data-name="타원 187" cx="61.146" cy="61.146" r="61.146" transform="translate(337.822 1710.982)" fill="#465fc4"/>
    <g id="그룹_3324" data-name="그룹 3324" transform="translate(371.104 1745.543)">
      <g id="그룹_3326" data-name="그룹 3326" transform="translate(0 0)">
        <path id="패스_1476" data-name="패스 1476" d="M37.618,25.9h-8.37V17.529a1.674,1.674,0,0,0-3.347,0V25.9h-8.37a1.672,1.672,0,1,0,0,3.345H25.9v8.372a1.674,1.674,0,0,0,3.347,0V29.246h8.37a1.672,1.672,0,1,0,0-3.345" transform="translate(23.316 23.316)" fill="#fff" stroke="#fff" stroke-width="0.5"/>
        <path id="패스_1477" data-name="패스 1477" d="M17.532,5.693A1.672,1.672,0,1,0,19.2,7.365a1.674,1.674,0,0,0-1.672-1.672" transform="translate(23.316 8.371)" fill="#fff" stroke="#fff" stroke-width="0.5"/>
        <path id="패스_1478" data-name="패스 1478" d="M49.217,6.695V30.8a1.674,1.674,0,1,0,3.347,0V6.695A6.7,6.7,0,0,0,45.87,0H6.7A6.7,6.7,0,0,0,0,6.695V45.867a6.7,6.7,0,0,0,6.7,6.695H30.8a1.672,1.672,0,1,0,0-3.345H6.7a3.354,3.354,0,0,1-3.347-3.35V6.695A3.352,3.352,0,0,1,6.7,3.347H45.87a3.352,3.352,0,0,1,3.347,3.347" transform="translate(0 0)" fill="#fff" stroke="#fff" stroke-width="0.5"/>
        <path id="패스_1479" data-name="패스 1479" d="M20.3,5.693A6.642,6.642,0,0,0,14.586,8.9c-.121.205-10.292,17.71-10.292,17.71A1.667,1.667,0,0,0,4.9,28.9a1.67,1.67,0,0,0,2.29-.608L17.446,10.644a3.346,3.346,0,0,1,5.7-.02L33.422,28.292a1.673,1.673,0,1,0,2.893-1.682S26.248,9.287,26.021,8.9A6.647,6.647,0,0,0,20.3,5.693" transform="translate(5.978 8.371)" fill="#fff" stroke="#fff" stroke-width="0.5"/>
      </g>
    </g>
  </g>
</svg>
