<svg xmlns="http://www.w3.org/2000/svg" xmlns:xlink="http://www.w3.org/1999/xlink" width="501.48" height="501.48" viewBox="0 0 501.48 501.48">
  <defs>
    <filter id="패스_67825" x="0" y="0" width="501.48" height="501.48" filterUnits="userSpaceOnUse">
      <feOffset input="SourceAlpha"/>
      <feGaussianBlur stdDeviation="15" result="blur"/>
      <feFlood flood-color="#5356e5"/>
      <feComposite operator="in" in2="blur"/>
      <feComposite in="SourceGraphic"/>
    </filter>
  </defs>
  <g id="그룹_24668" data-name="그룹 24668" transform="translate(-1754.398 -1069.395)">
    <g id="bt_take_a_photo_big" transform="translate(1764.917 1082.913)">
      <g id="ico_ar_camera" transform="translate(0 0)">
        <ellipse id="타원_173" data-name="타원 173" cx="224.13" cy="224.13" rx="224.13" ry="224.13" transform="translate(16.091 16.091)" fill="#5356e5" opacity="0.4"/>
        <ellipse id="타원_176" data-name="타원 176" cx="240.222" cy="240.222" rx="240.222" ry="240.222" transform="translate(0)" fill="#fff" opacity="0.4"/>
        <g transform="matrix(1, 0, 0, 1, -10.52, -13.52)" filter="url(#패스_67825)">
          <path id="패스_67825-2" data-name="패스 67825" d="M205.74,0C319.367,0,411.48,92.113,411.48,205.74S319.367,411.48,205.74,411.48,0,319.367,0,205.74,92.113,0,205.74,0Z" transform="translate(45 45)" fill="#5356e5"/>
        </g>
        <g id="그룹_615" data-name="그룹 615" transform="translate(154.17 113.867)">
          <g id="사각형_472" data-name="사각형 472" transform="translate(0 21.108)" fill="none" stroke="#fff" stroke-width="10">
            <rect width="172.103" height="118.437" rx="5" stroke="none"/>
            <rect x="5" y="5" width="162.103" height="108.437" fill="none"/>
          </g>
          <ellipse id="타원_174" data-name="타원 174" cx="6.477" cy="6.723" rx="6.477" ry="6.723" transform="translate(127.69 42.823)" fill="#fff"/>
          <g id="패스_1385" data-name="패스 1385" transform="translate(50.133 42.824)" fill="none">
            <path d="M36.057,0A36.057,36.057,0,1,1,0,36.057,36.057,36.057,0,0,1,36.057,0Z" stroke="none"/>
            <path d="M 36.05691528320312 10.00000762939453 C 21.6890754699707 10.00000762939453 9.999996185302734 21.6890869140625 9.999996185302734 36.05690765380859 C 9.999996185302734 50.42472839355469 21.6890754699707 62.11380767822266 36.05691528320312 62.11380767822266 C 50.42475509643555 62.11380767822266 62.11383438110352 50.42472839355469 62.11383438110352 36.05690765380859 C 62.11383438110352 21.6890869140625 50.42475509643555 10.00000762939453 36.05691528320312 10.00000762939453 M 36.05691528320312 7.62939453125e-06 C 55.97059631347656 7.62939453125e-06 72.11383819580078 16.14322662353516 72.11383819580078 36.05690765380859 C 72.11383819580078 55.97058868408203 55.97059631347656 72.11380767822266 36.05691528320312 72.11380767822266 C 16.14323425292969 72.11380767822266 -7.62939453125e-06 55.97058868408203 -7.62939453125e-06 36.05690765380859 C -7.62939453125e-06 16.14322662353516 16.14323425292969 7.62939453125e-06 36.05691528320312 7.62939453125e-06 Z" stroke="none" fill="#fff"/>
          </g>
          <g id="그룹_614" data-name="그룹 614" transform="translate(43.805 0)">
            <g id="그룹_24596" data-name="그룹 24596" transform="translate(0)">
              <path id="패스_1386" data-name="패스 1386" d="M8.192,28.571,0,23.394,8.584,8.683A17.42,17.42,0,0,1,23.463,0H60.286A17.393,17.393,0,0,1,75.259,8.843L83.709,23.4l-8.2,5.157-8.471-14.6a7.835,7.835,0,0,0-6.748-3.989H23.463a7.843,7.843,0,0,0-6.7,3.9Z" transform="translate(0 0)" fill="#fff"/>
            </g>
          </g>
        </g>
      </g>
    </g>
    <text id="촬영하기" transform="translate(2005.139 1441)" fill="#fff" font-size="65" font-family="Pretendard-Medium, Pretendard" font-weight="500" letter-spacing="-0.025em"><tspan x="-109.916" y="0">촬영하기</tspan></text>
  </g>
</svg>
