<svg xmlns="http://www.w3.org/2000/svg" xmlns:xlink="http://www.w3.org/1999/xlink" width="545.277" height="444.944" viewBox="0 0 545.277 444.944">
  <defs>
    <linearGradient id="linear-gradient" x1="0.5" x2="0.5" y2="1" gradientUnits="objectBoundingBox">
      <stop offset="0" stop-color="#fff"/>
      <stop offset="1" stop-color="#fff" stop-opacity="0"/>
    </linearGradient>
    <clipPath id="clip-path">
      <rect id="사각형_959" data-name="사각형 959" width="225.389" height="499.502" fill="url(#linear-gradient)"/>
    </clipPath>
    <clipPath id="clip-path-3">
      <rect id="사각형_956" data-name="사각형 956" width="216.673" height="495.449" fill="url(#linear-gradient)"/>
    </clipPath>
  </defs>
  <g id="그룹_24668" data-name="그룹 24668" transform="translate(-1283.362 -975.904)">
    <g id="그룹_3285" data-name="그룹 3285" transform="matrix(0.5, -0.866, 0.866, 0.5, 1283.362, 1171.097)">
      <g id="그룹_1365" data-name="그룹 1365" clip-path="url(#clip-path)">
        <g id="그룹_1364" data-name="그룹 1364">
          <g id="그룹_1363" data-name="그룹 1363" clip-path="url(#clip-path)">
            <g id="그룹_1359" data-name="그룹 1359" transform="translate(4.054 4.054)" opacity="0.4">
              <g id="그룹_1358" data-name="그룹 1358">
                <g id="그룹_1357" data-name="그룹 1357" clip-path="url(#clip-path-3)">
                  <path id="패스_1088" data-name="패스 1088" d="M216.673,495.449H96.137L32.591,359.428,13.4,323.021,5.454,252.856,0,223.492l1.9-20.5,2.144-16.567L.57,171.8l6.7-8.321,10.986,2.318,17.3,21.394,3.656-9.792,4.415-45.722L41.785,90.789l1.4-46.439,7.28-32.435L59.731,0,73.155.5l7.024,12.882L76.546,54.52l4.13,46.953L79.246,150.9l12.115,15.882,6.1-37.041,6.32-17.817,13.687-2.478,10.44,3.084,5.3,4.634,2.5,10.065-2.059,27.495,10.816-20.351,13.9-.661,9.929,4.634,2.361,8.876.948,20.91-4.469,27.057,1.688,7.952,10.723-27.727,11.96-6.071,9.883,9.382,2.649,17.873-4.536,44.97-1.855,21.987-10.157,27.035-4.623,22.533-5.621,33.943s-6.966,26.265-8.29,29.574-1.985,11.916-1.985,11.916Z" transform="translate(0 0)" fill="url(#linear-gradient)"/>
                </g>
              </g>
            </g>
            <path id="패스_1089" data-name="패스 1089" d="M2.3,262.96A2.3,2.3,0,0,0,4.557,261.1c.073-.391,7.694-39.2,11.088-52.785,1.9-7.607,1.9-13.432,1.891-19.066a59.058,59.058,0,0,1,1.185-14.317c1.838-7.873,1.934-16.776,2.019-24.627.042-3.961.082-7.7.336-10.982.412-5.373-.234-14.549-.92-24.264-.59-8.354-1.2-16.993-.991-22.2.391-9.815,1.471-19.316,2.614-29.376.685-6.039,1.4-12.282,1.977-18.811C25.274,27.6,29.768,13.242,31.232,9.944,32.809,6.4,37.133,4.6,44.083,4.6c6.11,0,7.624,5.1,8.966,11.759.1.482.191.939.283,1.374.912,4.254-.962,26-1.667,34.188-.137,1.553-.238,2.762-.3,3.483-.4,5.221-.376,24.985.791,31.988,1.052,6.293,3.768,45.118,2.814,56.249-1.3,15.118,11.494,27.68,12.039,28.209a2.3,2.3,0,0,0,3.2-3.307c-.118-.114-11.761-11.591-10.657-24.51.986-11.491-1.7-50.464-2.857-57.4-1.1-6.574-1.122-25.953-.741-30.875.054-.716.157-1.911.289-3.443C57.553,37.175,58.76,21.11,57.83,16.769c-.089-.418-.177-.857-.271-1.316C56.47,10.051,54.443,0,44.083,0,35.148,0,29.415,2.717,27.028,8.075c-1.546,3.482-6.286,18.531-7.852,36.187-.576,6.469-1.284,12.685-1.966,18.7-1.152,10.147-2.242,19.728-2.642,29.714-.216,5.464.4,14.234,1,22.713.645,9.119,1.31,18.55.924,23.583-.269,3.432-.308,7.247-.352,11.288-.079,7.616-.172,16.246-1.9,23.631-1.319,5.65-1.312,10.367-1.306,15.367.005,5.354.012,10.891-1.752,17.946C7.759,220.9.119,259.826.044,260.216a2.3,2.3,0,0,0,1.811,2.7,2.442,2.442,0,0,0,.449.044" transform="translate(26.674 1.987)" fill="url(#linear-gradient)"/>
            <path id="패스_1090" data-name="패스 1090" d="M2.3,72.6a2.289,2.289,0,0,0,1.564-.615c1.565-1.451,6.323-5.87,8.994-44.564.193-2.825,1.566-12.2,5.193-18,3.32-5.315,12.187-5.235,16.9-4.353,4.943.93,7.6,3.193,9.819,8.356,1.459,3.4.888,8.587.285,14.08-.224,2.046-.455,4.163-.586,6.239-.244,3.933,1.46,34.98,1.534,36.3a2.267,2.267,0,0,0,2.42,2.171,2.3,2.3,0,0,0,2.171-2.425c-.49-8.911-1.723-32.718-1.534-35.763.122-1.968.349-4.027.567-6.019C50.3,21.9,50.933,16.123,49,11.613,46.194,5.067,42.245,1.758,35.8.548c-7.276-1.37-17.313-.5-21.65,6.438-4,6.392-5.595,15.956-5.883,20.12C5.908,61.325,1.905,67.531.735,68.615A2.3,2.3,0,0,0,2.3,72.6" transform="translate(90.687 110.697)" fill="url(#linear-gradient)"/>
            <path id="패스_1091" data-name="패스 1091" d="M37.088,94.369a2.3,2.3,0,0,0,2.3-2.189,118.362,118.362,0,0,0-.868-15.036c-.513-5.314-1.045-10.814-.684-13.52.15-1.122.541-3.441,1.038-6.38,2.868-16.956,5.8-35.551,4.28-41.629C41.9,10.625,36.98-.874,18.418.053,8.75.539,5.817,5.927,3.787,15.706c-1.514,7.28-3.672,23-3.765,23.669A2.3,2.3,0,0,0,4.579,40c.021-.165,2.23-16.232,3.711-23.361C10.2,7.43,12.332,4.965,18.647,4.649,29.493,4.107,36.606,8.4,38.689,16.729c1.413,5.652-2.627,29.544-4.353,39.749-.524,3.1-.9,5.337-1.062,6.539-.43,3.229.1,8.739.665,14.57a116.053,116.053,0,0,1,.852,14.371,2.3,2.3,0,0,0,2.187,2.408c.039,0,.075,0,.111,0" transform="translate(136.015 134.544)" fill="url(#linear-gradient)"/>
            <path id="패스_1092" data-name="패스 1092" d="M2.3,218.468a2.294,2.294,0,0,0,1.742-.8c6.687-7.749,10.657-15.917,11.8-24.268,3.4-24.761,10.92-65.787,17.719-77.344,6.348-10.785,9.66-29.453,9.9-38.67.07-2.606.386-7.953.784-14.724.4-6.813.9-15.29,1.295-23.548.8-16.73.434-25.133-1.259-29C42.144,5.219,37.216,1.477,31.42.339c-4.85-.951-9.433.125-12.266,2.877C13.424,8.783,7.282,36.965,6.6,40.161a2.3,2.3,0,1,0,4.5.959c2.463-11.541,7.7-31.143,11.262-34.6,1.752-1.7,4.81-2.322,8.175-1.66a13.033,13.033,0,0,1,9.534,7.1c1.952,4.46,1.173,20.792.878,26.941-.391,8.234-.891,16.695-1.292,23.5s-.72,12.2-.788,14.875c-.23,8.74-3.331,26.37-9.267,36.461-7.7,13.086-15.345,57.431-18.312,79.05-1.024,7.455-4.633,14.82-10.73,21.891a2.3,2.3,0,0,0,1.741,3.8" transform="translate(164.135 173.053)" fill="url(#linear-gradient)"/>
            <path id="패스_1093" data-name="패스 1093" d="M12.333,30.339A9.575,9.575,0,0,0,20.2,26.305C22.292,23.547,23.178,3.117,23.271.8a.766.766,0,0,0-1.53-.06c-.349,8.578-1.406,22.858-2.762,24.643C14.485,31.3,7.743,27.76,6.99,27.337c-3.024-1.7-4.461-3.183-4.981-7.474-.751-6.194-.383-17.4-.379-17.516a.766.766,0,0,0-.741-.791A.737.737,0,0,0,.1,2.3c-.016.463-.377,11.438.388,17.749.592,4.889,2.4,6.742,5.752,8.626a12.67,12.67,0,0,0,6.094,1.666" transform="translate(56.474 8.098)" fill="url(#linear-gradient)"/>
            <path id="패스_1094" data-name="패스 1094" d="M3.48,24.43h.107c1.185-.046,2.352-.853,3.565-2.473,3.24-4.314,3.558-7.674,1.436-14.976C6.872,1.066,6.1.471,5.045.19a.655.655,0,0,1-.18-.06A.766.766,0,1,0,4.015,1.4a2.022,2.022,0,0,0,.637.267c.279.075.862.228,2.463,5.738,1.983,6.812,1.727,9.744-1.189,13.63-.895,1.191-1.722,1.834-2.4,1.858-.635.034-1.028-.422-1.426-.881a2.244,2.244,0,0,0-.382-.368,1.06,1.06,0,0,0-.993-.137,1.244,1.244,0,0,0-.7.852.766.766,0,0,0,.557.928.758.758,0,0,0,.543-.063,3.236,3.236,0,0,0,2.357,1.2" transform="translate(7.519 167.189)" fill="url(#linear-gradient)"/>
            <path id="패스_1095" data-name="패스 1095" d="M.766,3.068A.7.7,0,0,0,.9,3.055c.085-.016,8.41-1.523,12.128-1.523a12.838,12.838,0,0,1,5.577,1.06.766.766,0,0,0,.733-1.346A14,14,0,0,0,13.032,0C9.174,0,.975,1.482.629,1.546A.767.767,0,0,0,.766,3.068" transform="translate(53.889 108.358)" fill="url(#linear-gradient)"/>
            <path id="패스_1096" data-name="패스 1096" d="M8.816,4.026c4.339,0,8.606-.136,13.1-1.773A.766.766,0,1,0,21.394.814C17.131,2.362,13.012,2.492,8.816,2.492A14.417,14.417,0,0,1,1.215.143a.768.768,0,0,0-.9,1.247,15.768,15.768,0,0,0,8.5,2.637" transform="translate(51.015 117.175)" fill="url(#linear-gradient)"/>
            <path id="패스_1097" data-name="패스 1097" d="M20.626,8.119a.762.762,0,0,0,.473-.163.77.77,0,0,0,.13-1.077A15.769,15.769,0,0,0,13.8,1.994C9.626.789,5.483-.26.715.057A.771.771,0,0,0,0,.875a.76.76,0,0,0,.817.713c4.524-.3,8.52.711,12.551,1.878a14.445,14.445,0,0,1,6.653,4.36.757.757,0,0,0,.6.293" transform="translate(175.856 234.775)" fill="url(#linear-gradient)"/>
            <path id="패스_1098" data-name="패스 1098" d="M6.465,61.055a99.084,99.084,0,0,1,2.809,14.91c.462,5.276.512,13.542.561,20.832.03,4.971.055,9.266.21,11.4.384,5.386,7.634,49.888,10.621,58.847,1.354,4.066,5.111,10.767,9.46,18.524,5.072,9.049,11.384,20.311,16.156,31.516,6.786,15.937,39.746,86.325,54.154,117.015H95.355C80.5,302.456,48.726,234.562,42.05,218.892c-4.677-10.975-10.922-22.119-15.936-31.07-4.649-8.293-8.319-14.84-9.811-19.32-3.256-9.761-10.481-54.887-10.847-59.975-.163-2.285-.191-6.648-.22-11.7-.051-7.206-.1-15.373-.543-20.465A95.728,95.728,0,0,0,2,62.148,85.732,85.732,0,0,1,.1,53.065c-.8-6.414,3.421-21.454,3.874-23.02a16.651,16.651,0,0,0-.333-7.615C1.492,15.667,1.536,8.3,3.758,4.086A6.3,6.3,0,0,1,7.474.746c5.076-1.525,10.6-1.858,22.272,10.6C41.811,24.211,40.023,46.3,39.941,47.231a2.3,2.3,0,1,1-4.583-.4c.017-.208,1.7-20.954-8.969-32.342C15.7,3.081,11.869,4.231,8.8,5.152a2.14,2.14,0,0,0-.968,1.083c-1.366,2.584-1.758,8.649.2,14.8a21.112,21.112,0,0,1,.406,10.147C7.187,35.535,4.085,47.851,4.666,52.5a83.625,83.625,0,0,0,1.8,8.558" transform="translate(2.056 165.399)" fill="url(#linear-gradient)"/>
            <path id="패스_1099" data-name="패스 1099" d="M51.253,114.964.209,3.255A2.3,2.3,0,1,1,4.393,1.347L56.31,114.964Z" transform="translate(166.968 384.538)" fill="url(#linear-gradient)"/>
            <g id="그룹_1362" data-name="그룹 1362" opacity="0.13">
              <g id="그룹_1361" data-name="그룹 1361">
                <g id="그룹_1360" data-name="그룹 1360" clip-path="url(#clip-path)">
                  <path id="패스_1100" data-name="패스 1100" d="M225.39,499.5h-9.425l-48.5-106.141a4.166,4.166,0,0,1-1.1.145,4.284,4.284,0,0,1-3.244-7.083c5.839-6.777,9.294-13.8,10.265-20.867,2.986-21.754,10.708-66.425,18.567-79.785,5.758-9.787,8.77-26.973,8.993-35.507.07-2.681.384-7.991.779-14.712l.015-.227c.4-6.783.9-15.223,1.288-23.472.7-14.606.458-23.374-.713-26.053a11.044,11.044,0,0,0-8.1-5.946,11.514,11.514,0,0,0-2.195-.22,6.014,6.014,0,0,0-4.212,1.358c-2.754,2.676-7.7,19.52-10.7,33.6a4.362,4.362,0,0,1-.291.88,88.933,88.933,0,0,1,.5,11.349,4.283,4.283,0,0,1-4.281,4.082c-.085,0-.171,0-.261-.011a4.274,4.274,0,0,1-4.022-4.478,114.351,114.351,0,0,0-.84-14.053c-.578-5.987-1.12-11.6-.661-15.059.163-1.2.513-3.295,1.075-6.609,1.558-9.211,5.7-33.679,4.382-38.933-2.195-8.781-10.084-10.624-16.316-10.624-.555,0-1.122.016-1.7.043-4.656.235-6.6,1.193-8.512,10.411-1.15,5.537-2.736,16.467-3.392,21.117.156,3.025.3,5.713.408,7.677a4.289,4.289,0,0,1-4.042,4.513,2.753,2.753,0,0,1-.282.012,4.264,4.264,0,0,1-4.232-4.057c-.017-.3-.118-2.133-.259-4.825A4.145,4.145,0,0,1,134,173.65l.016-.109.171-1.222c-.586-11.344-1.245-25.329-1.079-28,.132-2.148.377-4.372.594-6.335.575-5.222,1.115-10.157-.136-13.078-1.958-4.568-4.069-6.382-8.362-7.186a26.038,26.038,0,0,0-4.68-.42c-2.9,0-8.066.5-10.172,3.874-3.161,5.06-4.661,13.693-4.895,17.083-2.725,39.479-7.737,44.133-9.622,45.885A4.285,4.285,0,1,1,90,177.858a9.1,9.1,0,0,0,1.576-3.268c-2.8-2.951-13.195-14.93-11.979-29.133.946-11.027-1.75-49.509-2.793-55.749-1.189-7.126-1.218-27.178-.811-32.467.058-.729.159-1.944.294-3.5.309-3.576.919-10.669,1.369-17.478l-.007.009c.54-3.243.9-6.76.381-8.676C76.9,23.439,78.785,14,70.1,12.861c-4.492-.584-8.687.38-11.329,6.043a73.059,73.059,0,0,0-3.639,10.771c-.036-.191-.083-.357-.113-.557-.291,1.371-.579,2.844-.858,4.37-.191.791-.3,1.28-.3,1.28l.043.212c-.627,3.639-1.191,7.6-1.569,11.851-.567,6.406-1.264,12.534-1.937,18.46l-.044.4c-1.143,10.033-2.216,19.493-2.6,29.227-.2,5.092.4,13.653.986,21.93.693,9.845,1.346,19.09.921,24.612-.247,3.234-.289,6.935-.329,10.853-.085,7.951-.183,16.964-2.071,25.059a57.482,57.482,0,0,0-1.131,13.862c0,5.753.011,11.7-1.953,19.552l-.191.779c-.034.689-.068,1.123-.079,1.241a4.028,4.028,0,0,1-.654,1.846c-3.69,15.933-10.082,48.513-10.14,48.808a4.276,4.276,0,0,1-5.04,3.388,4.281,4.281,0,0,1-3.371-5.028c.059-.312,7.162-36.478,10.746-51.407.136-4.844-.154-20.248-8.516-29.171-3.588-3.823-6.583-6.434-9.06-7.881.027.083.048.167.077.254,2.31,7.945,1.9,11.851-1.753,16.723a8.42,8.42,0,0,1-3.378,2.888,21.849,21.849,0,0,1-.466,3.813c-1.709,5.991-4.2,16.786-3.726,20.609a81.737,81.737,0,0,0,1.744,8.274,100.7,100.7,0,0,1,2.873,15.266c.463,5.3.518,13.513.567,20.76v.231c.031,4.936.054,9.2.206,11.276.384,5.358,7.569,49.506,10.524,58.361,1.3,3.894,5.01,10.515,9.307,18.183,5.112,9.118,11.444,20.42,16.253,31.711,6.789,15.936,40.111,87.1,54.123,116.948l.395.842H95.145c-17.185-36.63-46.486-99.29-52.937-114.431-4.637-10.88-10.851-21.968-15.843-30.882-4.7-8.382-8.41-15-9.961-19.659C13.127,324.7,5.829,279.2,5.458,274.068c-.168-2.415-.195-6.989-.224-11.832l0-.231c-.048-7.083-.1-15.113-.532-20.071a93.977,93.977,0,0,0-2.646-13.92l-.03-.118A85.2,85.2,0,0,1,.115,218.71c-.854-6.822,3.324-21.692,3.913-23.74a14.632,14.632,0,0,0-.3-6.539c-2.336-7.353-2.238-15.153.254-19.874a8.227,8.227,0,0,1,4.905-4.314,16.934,16.934,0,0,1,4.961-.827c5.608,0,11.567,3.69,19.326,11.971a33.2,33.2,0,0,1,4.681,6.435,49.5,49.5,0,0,1,1.049-6.4c1.678-7.178,1.768-15.689,1.848-23.2v-.216c.044-3.993.089-7.765.356-11.2.373-4.9-.286-14.248-.923-23.29-.606-8.534-1.229-17.357-1.006-22.933.4-10.043,1.494-19.646,2.647-29.816l1.988.094-1.972-.226c.677-5.973,1.378-12.147,1.949-18.558,1.59-17.912,6.434-33.257,8.019-36.819C54.549,3.115,60.9,0,70.684,0,82.672,0,84.992,11.513,86.108,17.044c.089.453.179.887.266,1.294.983,4.588-.161,20.08-1.546,36.137l-.011.132c-.126,1.463-.226,2.6-.278,3.292-.363,4.72-.332,24.081.72,30.4,1.165,6.986,3.874,46.289,2.881,57.895-.6,6.954,2.915,13.573,5.9,17.845,1.162-6.84,2.121-15.681,2.858-26.37.3-4.336,1.976-14.313,6.178-21.036,4.305-6.889,12.782-7.917,17.45-7.917a33.934,33.934,0,0,1,6.253.582c7.077,1.327,11.6,5.1,14.656,12.233,2.052,4.79,1.529,10.53.864,16.62,2.508-3.294,6.192-5.243,11.959-5.531.75-.038,1.474-.056,2.18-.056,18.322,0,23.293,11.971,24.578,17.119,1.15,4.6.144,14.742-2.149,29.573a16.9,16.9,0,0,1,2.963-4.406,14.489,14.489,0,0,1,10.229-3.779,19.917,19.917,0,0,1,3.8.377c6.426,1.26,11.906,5.445,14.3,10.92,1.848,4.233,2.249,12.614,1.423,29.9-.4,8.383-.919,17.16-1.3,23.57-.4,6.746-.712,12.074-.782,14.661-.243,9.425-3.648,28.538-10.174,39.627-6.648,11.306-14.086,52.006-17.462,76.607a46,46,0,0,1-8.088,19.856l51.225,112.1Z" transform="translate(-0.001 0)" fill="url(#linear-gradient)"/>
                </g>
              </g>
            </g>
          </g>
        </g>
      </g>
    </g>
    <g id="그룹_3320" data-name="그룹 3320" transform="matrix(0.5, -0.866, 0.866, 0.5, 1283.362, 1171.097)" opacity="0.45">
      <g id="그룹_1365-2" data-name="그룹 1365" clip-path="url(#clip-path)">
        <g id="그룹_1364-2" data-name="그룹 1364">
          <g id="그룹_1363-2" data-name="그룹 1363" clip-path="url(#clip-path)">
            <g id="그룹_1359-2" data-name="그룹 1359" transform="translate(4.054 4.054)" opacity="0.4">
              <g id="그룹_1358-2" data-name="그룹 1358">
                <g id="그룹_1357-2" data-name="그룹 1357" clip-path="url(#clip-path-3)">
                  <path id="패스_1088-2" data-name="패스 1088" d="M216.673,495.449H96.137L32.591,359.428,13.4,323.021,5.454,252.856,0,223.492l1.9-20.5,2.144-16.567L.57,171.8l6.7-8.321,10.986,2.318,17.3,21.394,3.656-9.792,4.415-45.722L41.785,90.789l1.4-46.439,7.28-32.435L59.731,0,73.155.5l7.024,12.882L76.546,54.52l4.13,46.953L79.246,150.9l12.115,15.882,6.1-37.041,6.32-17.817,13.687-2.478,10.44,3.084,5.3,4.634,2.5,10.065-2.059,27.495,10.816-20.351,13.9-.661,9.929,4.634,2.361,8.876.948,20.91-4.469,27.057,1.688,7.952,10.723-27.727,11.96-6.071,9.883,9.382,2.649,17.873-4.536,44.97-1.855,21.987-10.157,27.035-4.623,22.533-5.621,33.943s-6.966,26.265-8.29,29.574-1.985,11.916-1.985,11.916Z" transform="translate(0 0)" fill="url(#linear-gradient)"/>
                </g>
              </g>
            </g>
            <path id="패스_1089-2" data-name="패스 1089" d="M2.3,262.96A2.3,2.3,0,0,0,4.557,261.1c.073-.391,7.694-39.2,11.088-52.785,1.9-7.607,1.9-13.432,1.891-19.066a59.058,59.058,0,0,1,1.185-14.317c1.838-7.873,1.934-16.776,2.019-24.627.042-3.961.082-7.7.336-10.982.412-5.373-.234-14.549-.92-24.264-.59-8.354-1.2-16.993-.991-22.2.391-9.815,1.471-19.316,2.614-29.376.685-6.039,1.4-12.282,1.977-18.811C25.274,27.6,29.768,13.242,31.232,9.944,32.809,6.4,37.133,4.6,44.083,4.6c6.11,0,7.624,5.1,8.966,11.759.1.482.191.939.283,1.374.912,4.254-.962,26-1.667,34.188-.137,1.553-.238,2.762-.3,3.483-.4,5.221-.376,24.985.791,31.988,1.052,6.293,3.768,45.118,2.814,56.249-1.3,15.118,11.494,27.68,12.039,28.209a2.3,2.3,0,0,0,3.2-3.307c-.118-.114-11.761-11.591-10.657-24.51.986-11.491-1.7-50.464-2.857-57.4-1.1-6.574-1.122-25.953-.741-30.875.054-.716.157-1.911.289-3.443C57.553,37.175,58.76,21.11,57.83,16.769c-.089-.418-.177-.857-.271-1.316C56.47,10.051,54.443,0,44.083,0,35.148,0,29.415,2.717,27.028,8.075c-1.546,3.482-6.286,18.531-7.852,36.187-.576,6.469-1.284,12.685-1.966,18.7-1.152,10.147-2.242,19.728-2.642,29.714-.216,5.464.4,14.234,1,22.713.645,9.119,1.31,18.55.924,23.583-.269,3.432-.308,7.247-.352,11.288-.079,7.616-.172,16.246-1.9,23.631-1.319,5.65-1.312,10.367-1.306,15.367.005,5.354.012,10.891-1.752,17.946C7.759,220.9.119,259.826.044,260.216a2.3,2.3,0,0,0,1.811,2.7,2.442,2.442,0,0,0,.449.044" transform="translate(26.674 1.987)" fill="url(#linear-gradient)"/>
            <path id="패스_1090-2" data-name="패스 1090" d="M2.3,72.6a2.289,2.289,0,0,0,1.564-.615c1.565-1.451,6.323-5.87,8.994-44.564.193-2.825,1.566-12.2,5.193-18,3.32-5.315,12.187-5.235,16.9-4.353,4.943.93,7.6,3.193,9.819,8.356,1.459,3.4.888,8.587.285,14.08-.224,2.046-.455,4.163-.586,6.239-.244,3.933,1.46,34.98,1.534,36.3a2.267,2.267,0,0,0,2.42,2.171,2.3,2.3,0,0,0,2.171-2.425c-.49-8.911-1.723-32.718-1.534-35.763.122-1.968.349-4.027.567-6.019C50.3,21.9,50.933,16.123,49,11.613,46.194,5.067,42.245,1.758,35.8.548c-7.276-1.37-17.313-.5-21.65,6.438-4,6.392-5.595,15.956-5.883,20.12C5.908,61.325,1.905,67.531.735,68.615A2.3,2.3,0,0,0,2.3,72.6" transform="translate(90.687 110.697)" fill="url(#linear-gradient)"/>
            <path id="패스_1091-2" data-name="패스 1091" d="M37.088,94.369a2.3,2.3,0,0,0,2.3-2.189,118.362,118.362,0,0,0-.868-15.036c-.513-5.314-1.045-10.814-.684-13.52.15-1.122.541-3.441,1.038-6.38,2.868-16.956,5.8-35.551,4.28-41.629C41.9,10.625,36.98-.874,18.418.053,8.75.539,5.817,5.927,3.787,15.706c-1.514,7.28-3.672,23-3.765,23.669A2.3,2.3,0,0,0,4.579,40c.021-.165,2.23-16.232,3.711-23.361C10.2,7.43,12.332,4.965,18.647,4.649,29.493,4.107,36.606,8.4,38.689,16.729c1.413,5.652-2.627,29.544-4.353,39.749-.524,3.1-.9,5.337-1.062,6.539-.43,3.229.1,8.739.665,14.57a116.053,116.053,0,0,1,.852,14.371,2.3,2.3,0,0,0,2.187,2.408c.039,0,.075,0,.111,0" transform="translate(136.015 134.544)" fill="url(#linear-gradient)"/>
            <path id="패스_1092-2" data-name="패스 1092" d="M2.3,218.468a2.294,2.294,0,0,0,1.742-.8c6.687-7.749,10.657-15.917,11.8-24.268,3.4-24.761,10.92-65.787,17.719-77.344,6.348-10.785,9.66-29.453,9.9-38.67.07-2.606.386-7.953.784-14.724.4-6.813.9-15.29,1.295-23.548.8-16.73.434-25.133-1.259-29C42.144,5.219,37.216,1.477,31.42.339c-4.85-.951-9.433.125-12.266,2.877C13.424,8.783,7.282,36.965,6.6,40.161a2.3,2.3,0,1,0,4.5.959c2.463-11.541,7.7-31.143,11.262-34.6,1.752-1.7,4.81-2.322,8.175-1.66a13.033,13.033,0,0,1,9.534,7.1c1.952,4.46,1.173,20.792.878,26.941-.391,8.234-.891,16.695-1.292,23.5s-.72,12.2-.788,14.875c-.23,8.74-3.331,26.37-9.267,36.461-7.7,13.086-15.345,57.431-18.312,79.05-1.024,7.455-4.633,14.82-10.73,21.891a2.3,2.3,0,0,0,1.741,3.8" transform="translate(164.135 173.053)" fill="url(#linear-gradient)"/>
            <path id="패스_1093-2" data-name="패스 1093" d="M12.333,30.339A9.575,9.575,0,0,0,20.2,26.305C22.292,23.547,23.178,3.117,23.271.8a.766.766,0,0,0-1.53-.06c-.349,8.578-1.406,22.858-2.762,24.643C14.485,31.3,7.743,27.76,6.99,27.337c-3.024-1.7-4.461-3.183-4.981-7.474-.751-6.194-.383-17.4-.379-17.516a.766.766,0,0,0-.741-.791A.737.737,0,0,0,.1,2.3c-.016.463-.377,11.438.388,17.749.592,4.889,2.4,6.742,5.752,8.626a12.67,12.67,0,0,0,6.094,1.666" transform="translate(56.474 8.098)" fill="url(#linear-gradient)"/>
            <path id="패스_1094-2" data-name="패스 1094" d="M3.48,24.43h.107c1.185-.046,2.352-.853,3.565-2.473,3.24-4.314,3.558-7.674,1.436-14.976C6.872,1.066,6.1.471,5.045.19a.655.655,0,0,1-.18-.06A.766.766,0,1,0,4.015,1.4a2.022,2.022,0,0,0,.637.267c.279.075.862.228,2.463,5.738,1.983,6.812,1.727,9.744-1.189,13.63-.895,1.191-1.722,1.834-2.4,1.858-.635.034-1.028-.422-1.426-.881a2.244,2.244,0,0,0-.382-.368,1.06,1.06,0,0,0-.993-.137,1.244,1.244,0,0,0-.7.852.766.766,0,0,0,.557.928.758.758,0,0,0,.543-.063,3.236,3.236,0,0,0,2.357,1.2" transform="translate(7.519 167.189)" fill="url(#linear-gradient)"/>
            <path id="패스_1095-2" data-name="패스 1095" d="M.766,3.068A.7.7,0,0,0,.9,3.055c.085-.016,8.41-1.523,12.128-1.523a12.838,12.838,0,0,1,5.577,1.06.766.766,0,0,0,.733-1.346A14,14,0,0,0,13.032,0C9.174,0,.975,1.482.629,1.546A.767.767,0,0,0,.766,3.068" transform="translate(53.889 108.358)" fill="url(#linear-gradient)"/>
            <path id="패스_1096-2" data-name="패스 1096" d="M8.816,4.026c4.339,0,8.606-.136,13.1-1.773A.766.766,0,1,0,21.394.814C17.131,2.362,13.012,2.492,8.816,2.492A14.417,14.417,0,0,1,1.215.143a.768.768,0,0,0-.9,1.247,15.768,15.768,0,0,0,8.5,2.637" transform="translate(51.015 117.175)" fill="url(#linear-gradient)"/>
            <path id="패스_1097-2" data-name="패스 1097" d="M20.626,8.119a.762.762,0,0,0,.473-.163.77.77,0,0,0,.13-1.077A15.769,15.769,0,0,0,13.8,1.994C9.626.789,5.483-.26.715.057A.771.771,0,0,0,0,.875a.76.76,0,0,0,.817.713c4.524-.3,8.52.711,12.551,1.878a14.445,14.445,0,0,1,6.653,4.36.757.757,0,0,0,.6.293" transform="translate(175.856 234.775)" fill="url(#linear-gradient)"/>
            <path id="패스_1098-2" data-name="패스 1098" d="M6.465,61.055a99.084,99.084,0,0,1,2.809,14.91c.462,5.276.512,13.542.561,20.832.03,4.971.055,9.266.21,11.4.384,5.386,7.634,49.888,10.621,58.847,1.354,4.066,5.111,10.767,9.46,18.524,5.072,9.049,11.384,20.311,16.156,31.516,6.786,15.937,39.746,86.325,54.154,117.015H95.355C80.5,302.456,48.726,234.562,42.05,218.892c-4.677-10.975-10.922-22.119-15.936-31.07-4.649-8.293-8.319-14.84-9.811-19.32-3.256-9.761-10.481-54.887-10.847-59.975-.163-2.285-.191-6.648-.22-11.7-.051-7.206-.1-15.373-.543-20.465A95.728,95.728,0,0,0,2,62.148,85.732,85.732,0,0,1,.1,53.065c-.8-6.414,3.421-21.454,3.874-23.02a16.651,16.651,0,0,0-.333-7.615C1.492,15.667,1.536,8.3,3.758,4.086A6.3,6.3,0,0,1,7.474.746c5.076-1.525,10.6-1.858,22.272,10.6C41.811,24.211,40.023,46.3,39.941,47.231a2.3,2.3,0,1,1-4.583-.4c.017-.208,1.7-20.954-8.969-32.342C15.7,3.081,11.869,4.231,8.8,5.152a2.14,2.14,0,0,0-.968,1.083c-1.366,2.584-1.758,8.649.2,14.8a21.112,21.112,0,0,1,.406,10.147C7.187,35.535,4.085,47.851,4.666,52.5a83.625,83.625,0,0,0,1.8,8.558" transform="translate(2.056 165.399)" fill="url(#linear-gradient)"/>
            <path id="패스_1099-2" data-name="패스 1099" d="M51.253,114.964.209,3.255A2.3,2.3,0,1,1,4.393,1.347L56.31,114.964Z" transform="translate(166.968 384.538)" fill="url(#linear-gradient)"/>
            <g id="그룹_1362-2" data-name="그룹 1362" opacity="0.13">
              <g id="그룹_1361-2" data-name="그룹 1361">
                <g id="그룹_1360-2" data-name="그룹 1360" clip-path="url(#clip-path)">
                  <path id="패스_1100-2" data-name="패스 1100" d="M225.39,499.5h-9.425l-48.5-106.141a4.166,4.166,0,0,1-1.1.145,4.284,4.284,0,0,1-3.244-7.083c5.839-6.777,9.294-13.8,10.265-20.867,2.986-21.754,10.708-66.425,18.567-79.785,5.758-9.787,8.77-26.973,8.993-35.507.07-2.681.384-7.991.779-14.712l.015-.227c.4-6.783.9-15.223,1.288-23.472.7-14.606.458-23.374-.713-26.053a11.044,11.044,0,0,0-8.1-5.946,11.514,11.514,0,0,0-2.195-.22,6.014,6.014,0,0,0-4.212,1.358c-2.754,2.676-7.7,19.52-10.7,33.6a4.362,4.362,0,0,1-.291.88,88.933,88.933,0,0,1,.5,11.349,4.283,4.283,0,0,1-4.281,4.082c-.085,0-.171,0-.261-.011a4.274,4.274,0,0,1-4.022-4.478,114.351,114.351,0,0,0-.84-14.053c-.578-5.987-1.12-11.6-.661-15.059.163-1.2.513-3.295,1.075-6.609,1.558-9.211,5.7-33.679,4.382-38.933-2.195-8.781-10.084-10.624-16.316-10.624-.555,0-1.122.016-1.7.043-4.656.235-6.6,1.193-8.512,10.411-1.15,5.537-2.736,16.467-3.392,21.117.156,3.025.3,5.713.408,7.677a4.289,4.289,0,0,1-4.042,4.513,2.753,2.753,0,0,1-.282.012,4.264,4.264,0,0,1-4.232-4.057c-.017-.3-.118-2.133-.259-4.825A4.145,4.145,0,0,1,134,173.65l.016-.109.171-1.222c-.586-11.344-1.245-25.329-1.079-28,.132-2.148.377-4.372.594-6.335.575-5.222,1.115-10.157-.136-13.078-1.958-4.568-4.069-6.382-8.362-7.186a26.038,26.038,0,0,0-4.68-.42c-2.9,0-8.066.5-10.172,3.874-3.161,5.06-4.661,13.693-4.895,17.083-2.725,39.479-7.737,44.133-9.622,45.885A4.285,4.285,0,1,1,90,177.858a9.1,9.1,0,0,0,1.576-3.268c-2.8-2.951-13.195-14.93-11.979-29.133.946-11.027-1.75-49.509-2.793-55.749-1.189-7.126-1.218-27.178-.811-32.467.058-.729.159-1.944.294-3.5.309-3.576.919-10.669,1.369-17.478l-.007.009c.54-3.243.9-6.76.381-8.676C76.9,23.439,78.785,14,70.1,12.861c-4.492-.584-8.687.38-11.329,6.043a73.059,73.059,0,0,0-3.639,10.771c-.036-.191-.083-.357-.113-.557-.291,1.371-.579,2.844-.858,4.37-.191.791-.3,1.28-.3,1.28l.043.212c-.627,3.639-1.191,7.6-1.569,11.851-.567,6.406-1.264,12.534-1.937,18.46l-.044.4c-1.143,10.033-2.216,19.493-2.6,29.227-.2,5.092.4,13.653.986,21.93.693,9.845,1.346,19.09.921,24.612-.247,3.234-.289,6.935-.329,10.853-.085,7.951-.183,16.964-2.071,25.059a57.482,57.482,0,0,0-1.131,13.862c0,5.753.011,11.7-1.953,19.552l-.191.779c-.034.689-.068,1.123-.079,1.241a4.028,4.028,0,0,1-.654,1.846c-3.69,15.933-10.082,48.513-10.14,48.808a4.276,4.276,0,0,1-5.04,3.388,4.281,4.281,0,0,1-3.371-5.028c.059-.312,7.162-36.478,10.746-51.407.136-4.844-.154-20.248-8.516-29.171-3.588-3.823-6.583-6.434-9.06-7.881.027.083.048.167.077.254,2.31,7.945,1.9,11.851-1.753,16.723a8.42,8.42,0,0,1-3.378,2.888,21.849,21.849,0,0,1-.466,3.813c-1.709,5.991-4.2,16.786-3.726,20.609a81.737,81.737,0,0,0,1.744,8.274,100.7,100.7,0,0,1,2.873,15.266c.463,5.3.518,13.513.567,20.76v.231c.031,4.936.054,9.2.206,11.276.384,5.358,7.569,49.506,10.524,58.361,1.3,3.894,5.01,10.515,9.307,18.183,5.112,9.118,11.444,20.42,16.253,31.711,6.789,15.936,40.111,87.1,54.123,116.948l.395.842H95.145c-17.185-36.63-46.486-99.29-52.937-114.431-4.637-10.88-10.851-21.968-15.843-30.882-4.7-8.382-8.41-15-9.961-19.659C13.127,324.7,5.829,279.2,5.458,274.068c-.168-2.415-.195-6.989-.224-11.832l0-.231c-.048-7.083-.1-15.113-.532-20.071a93.977,93.977,0,0,0-2.646-13.92l-.03-.118A85.2,85.2,0,0,1,.115,218.71c-.854-6.822,3.324-21.692,3.913-23.74a14.632,14.632,0,0,0-.3-6.539c-2.336-7.353-2.238-15.153.254-19.874a8.227,8.227,0,0,1,4.905-4.314,16.934,16.934,0,0,1,4.961-.827c5.608,0,11.567,3.69,19.326,11.971a33.2,33.2,0,0,1,4.681,6.435,49.5,49.5,0,0,1,1.049-6.4c1.678-7.178,1.768-15.689,1.848-23.2v-.216c.044-3.993.089-7.765.356-11.2.373-4.9-.286-14.248-.923-23.29-.606-8.534-1.229-17.357-1.006-22.933.4-10.043,1.494-19.646,2.647-29.816l1.988.094-1.972-.226c.677-5.973,1.378-12.147,1.949-18.558,1.59-17.912,6.434-33.257,8.019-36.819C54.549,3.115,60.9,0,70.684,0,82.672,0,84.992,11.513,86.108,17.044c.089.453.179.887.266,1.294.983,4.588-.161,20.08-1.546,36.137l-.011.132c-.126,1.463-.226,2.6-.278,3.292-.363,4.72-.332,24.081.72,30.4,1.165,6.986,3.874,46.289,2.881,57.895-.6,6.954,2.915,13.573,5.9,17.845,1.162-6.84,2.121-15.681,2.858-26.37.3-4.336,1.976-14.313,6.178-21.036,4.305-6.889,12.782-7.917,17.45-7.917a33.934,33.934,0,0,1,6.253.582c7.077,1.327,11.6,5.1,14.656,12.233,2.052,4.79,1.529,10.53.864,16.62,2.508-3.294,6.192-5.243,11.959-5.531.75-.038,1.474-.056,2.18-.056,18.322,0,23.293,11.971,24.578,17.119,1.15,4.6.144,14.742-2.149,29.573a16.9,16.9,0,0,1,2.963-4.406,14.489,14.489,0,0,1,10.229-3.779,19.917,19.917,0,0,1,3.8.377c6.426,1.26,11.906,5.445,14.3,10.92,1.848,4.233,2.249,12.614,1.423,29.9-.4,8.383-.919,17.16-1.3,23.57-.4,6.746-.712,12.074-.782,14.661-.243,9.425-3.648,28.538-10.174,39.627-6.648,11.306-14.086,52.006-17.462,76.607a46,46,0,0,1-8.088,19.856l51.225,112.1Z" transform="translate(-0.001 0)" fill="url(#linear-gradient)"/>
                </g>
              </g>
            </g>
          </g>
        </g>
      </g>
    </g>
    <g id="그룹_3285-2" data-name="그룹 3285" transform="matrix(0.5, -0.866, 0.866, 0.5, 1283.362, 1171.097)">
      <g id="그룹_1365-3" data-name="그룹 1365" clip-path="url(#clip-path)">
        <g id="그룹_1364-3" data-name="그룹 1364">
          <g id="그룹_1363-3" data-name="그룹 1363" clip-path="url(#clip-path)">
            <g id="그룹_1359-3" data-name="그룹 1359" transform="translate(4.054 4.054)" opacity="0.4">
              <g id="그룹_1358-3" data-name="그룹 1358">
                <g id="그룹_1357-3" data-name="그룹 1357" clip-path="url(#clip-path-3)">
                  <path id="패스_1088-3" data-name="패스 1088" d="M216.673,495.449H96.137L32.591,359.428,13.4,323.021,5.454,252.856,0,223.492l1.9-20.5,2.144-16.567L.57,171.8l6.7-8.321,10.986,2.318,17.3,21.394,3.656-9.792,4.415-45.722L41.785,90.789l1.4-46.439,7.28-32.435L59.731,0,73.155.5l7.024,12.882L76.546,54.52l4.13,46.953L79.246,150.9l12.115,15.882,6.1-37.041,6.32-17.817,13.687-2.478,10.44,3.084,5.3,4.634,2.5,10.065-2.059,27.495,10.816-20.351,13.9-.661,9.929,4.634,2.361,8.876.948,20.91-4.469,27.057,1.688,7.952,10.723-27.727,11.96-6.071,9.883,9.382,2.649,17.873-4.536,44.97-1.855,21.987-10.157,27.035-4.623,22.533-5.621,33.943s-6.966,26.265-8.29,29.574-1.985,11.916-1.985,11.916Z" transform="translate(0 0)" fill="url(#linear-gradient)"/>
                </g>
              </g>
            </g>
            <path id="패스_1089-3" data-name="패스 1089" d="M2.3,262.96A2.3,2.3,0,0,0,4.557,261.1c.073-.391,7.694-39.2,11.088-52.785,1.9-7.607,1.9-13.432,1.891-19.066a59.058,59.058,0,0,1,1.185-14.317c1.838-7.873,1.934-16.776,2.019-24.627.042-3.961.082-7.7.336-10.982.412-5.373-.234-14.549-.92-24.264-.59-8.354-1.2-16.993-.991-22.2.391-9.815,1.471-19.316,2.614-29.376.685-6.039,1.4-12.282,1.977-18.811C25.274,27.6,29.768,13.242,31.232,9.944,32.809,6.4,37.133,4.6,44.083,4.6c6.11,0,7.624,5.1,8.966,11.759.1.482.191.939.283,1.374.912,4.254-.962,26-1.667,34.188-.137,1.553-.238,2.762-.3,3.483-.4,5.221-.376,24.985.791,31.988,1.052,6.293,3.768,45.118,2.814,56.249-1.3,15.118,11.494,27.68,12.039,28.209a2.3,2.3,0,0,0,3.2-3.307c-.118-.114-11.761-11.591-10.657-24.51.986-11.491-1.7-50.464-2.857-57.4-1.1-6.574-1.122-25.953-.741-30.875.054-.716.157-1.911.289-3.443C57.553,37.175,58.76,21.11,57.83,16.769c-.089-.418-.177-.857-.271-1.316C56.47,10.051,54.443,0,44.083,0,35.148,0,29.415,2.717,27.028,8.075c-1.546,3.482-6.286,18.531-7.852,36.187-.576,6.469-1.284,12.685-1.966,18.7-1.152,10.147-2.242,19.728-2.642,29.714-.216,5.464.4,14.234,1,22.713.645,9.119,1.31,18.55.924,23.583-.269,3.432-.308,7.247-.352,11.288-.079,7.616-.172,16.246-1.9,23.631-1.319,5.65-1.312,10.367-1.306,15.367.005,5.354.012,10.891-1.752,17.946C7.759,220.9.119,259.826.044,260.216a2.3,2.3,0,0,0,1.811,2.7,2.442,2.442,0,0,0,.449.044" transform="translate(26.674 1.987)" fill="url(#linear-gradient)"/>
            <path id="패스_1090-3" data-name="패스 1090" d="M2.3,72.6a2.289,2.289,0,0,0,1.564-.615c1.565-1.451,6.323-5.87,8.994-44.564.193-2.825,1.566-12.2,5.193-18,3.32-5.315,12.187-5.235,16.9-4.353,4.943.93,7.6,3.193,9.819,8.356,1.459,3.4.888,8.587.285,14.08-.224,2.046-.455,4.163-.586,6.239-.244,3.933,1.46,34.98,1.534,36.3a2.267,2.267,0,0,0,2.42,2.171,2.3,2.3,0,0,0,2.171-2.425c-.49-8.911-1.723-32.718-1.534-35.763.122-1.968.349-4.027.567-6.019C50.3,21.9,50.933,16.123,49,11.613,46.194,5.067,42.245,1.758,35.8.548c-7.276-1.37-17.313-.5-21.65,6.438-4,6.392-5.595,15.956-5.883,20.12C5.908,61.325,1.905,67.531.735,68.615A2.3,2.3,0,0,0,2.3,72.6" transform="translate(90.687 110.697)" fill="url(#linear-gradient)"/>
            <path id="패스_1091-3" data-name="패스 1091" d="M37.088,94.369a2.3,2.3,0,0,0,2.3-2.189,118.362,118.362,0,0,0-.868-15.036c-.513-5.314-1.045-10.814-.684-13.52.15-1.122.541-3.441,1.038-6.38,2.868-16.956,5.8-35.551,4.28-41.629C41.9,10.625,36.98-.874,18.418.053,8.75.539,5.817,5.927,3.787,15.706c-1.514,7.28-3.672,23-3.765,23.669A2.3,2.3,0,0,0,4.579,40c.021-.165,2.23-16.232,3.711-23.361C10.2,7.43,12.332,4.965,18.647,4.649,29.493,4.107,36.606,8.4,38.689,16.729c1.413,5.652-2.627,29.544-4.353,39.749-.524,3.1-.9,5.337-1.062,6.539-.43,3.229.1,8.739.665,14.57a116.053,116.053,0,0,1,.852,14.371,2.3,2.3,0,0,0,2.187,2.408c.039,0,.075,0,.111,0" transform="translate(136.015 134.544)" fill="url(#linear-gradient)"/>
            <path id="패스_1092-3" data-name="패스 1092" d="M2.3,218.468a2.294,2.294,0,0,0,1.742-.8c6.687-7.749,10.657-15.917,11.8-24.268,3.4-24.761,10.92-65.787,17.719-77.344,6.348-10.785,9.66-29.453,9.9-38.67.07-2.606.386-7.953.784-14.724.4-6.813.9-15.29,1.295-23.548.8-16.73.434-25.133-1.259-29C42.144,5.219,37.216,1.477,31.42.339c-4.85-.951-9.433.125-12.266,2.877C13.424,8.783,7.282,36.965,6.6,40.161a2.3,2.3,0,1,0,4.5.959c2.463-11.541,7.7-31.143,11.262-34.6,1.752-1.7,4.81-2.322,8.175-1.66a13.033,13.033,0,0,1,9.534,7.1c1.952,4.46,1.173,20.792.878,26.941-.391,8.234-.891,16.695-1.292,23.5s-.72,12.2-.788,14.875c-.23,8.74-3.331,26.37-9.267,36.461-7.7,13.086-15.345,57.431-18.312,79.05-1.024,7.455-4.633,14.82-10.73,21.891a2.3,2.3,0,0,0,1.741,3.8" transform="translate(164.135 173.053)" fill="url(#linear-gradient)"/>
            <path id="패스_1093-3" data-name="패스 1093" d="M12.333,30.339A9.575,9.575,0,0,0,20.2,26.305C22.292,23.547,23.178,3.117,23.271.8a.766.766,0,0,0-1.53-.06c-.349,8.578-1.406,22.858-2.762,24.643C14.485,31.3,7.743,27.76,6.99,27.337c-3.024-1.7-4.461-3.183-4.981-7.474-.751-6.194-.383-17.4-.379-17.516a.766.766,0,0,0-.741-.791A.737.737,0,0,0,.1,2.3c-.016.463-.377,11.438.388,17.749.592,4.889,2.4,6.742,5.752,8.626a12.67,12.67,0,0,0,6.094,1.666" transform="translate(56.474 8.098)" fill="url(#linear-gradient)"/>
            <path id="패스_1094-3" data-name="패스 1094" d="M3.48,24.43h.107c1.185-.046,2.352-.853,3.565-2.473,3.24-4.314,3.558-7.674,1.436-14.976C6.872,1.066,6.1.471,5.045.19a.655.655,0,0,1-.18-.06A.766.766,0,1,0,4.015,1.4a2.022,2.022,0,0,0,.637.267c.279.075.862.228,2.463,5.738,1.983,6.812,1.727,9.744-1.189,13.63-.895,1.191-1.722,1.834-2.4,1.858-.635.034-1.028-.422-1.426-.881a2.244,2.244,0,0,0-.382-.368,1.06,1.06,0,0,0-.993-.137,1.244,1.244,0,0,0-.7.852.766.766,0,0,0,.557.928.758.758,0,0,0,.543-.063,3.236,3.236,0,0,0,2.357,1.2" transform="translate(7.519 167.189)" fill="url(#linear-gradient)"/>
            <path id="패스_1095-3" data-name="패스 1095" d="M.766,3.068A.7.7,0,0,0,.9,3.055c.085-.016,8.41-1.523,12.128-1.523a12.838,12.838,0,0,1,5.577,1.06.766.766,0,0,0,.733-1.346A14,14,0,0,0,13.032,0C9.174,0,.975,1.482.629,1.546A.767.767,0,0,0,.766,3.068" transform="translate(53.889 108.358)" fill="url(#linear-gradient)"/>
            <path id="패스_1096-3" data-name="패스 1096" d="M8.816,4.026c4.339,0,8.606-.136,13.1-1.773A.766.766,0,1,0,21.394.814C17.131,2.362,13.012,2.492,8.816,2.492A14.417,14.417,0,0,1,1.215.143a.768.768,0,0,0-.9,1.247,15.768,15.768,0,0,0,8.5,2.637" transform="translate(51.015 117.175)" fill="url(#linear-gradient)"/>
            <path id="패스_1097-3" data-name="패스 1097" d="M20.626,8.119a.762.762,0,0,0,.473-.163.77.77,0,0,0,.13-1.077A15.769,15.769,0,0,0,13.8,1.994C9.626.789,5.483-.26.715.057A.771.771,0,0,0,0,.875a.76.76,0,0,0,.817.713c4.524-.3,8.52.711,12.551,1.878a14.445,14.445,0,0,1,6.653,4.36.757.757,0,0,0,.6.293" transform="translate(175.856 234.775)" fill="url(#linear-gradient)"/>
            <path id="패스_1098-3" data-name="패스 1098" d="M6.465,61.055a99.084,99.084,0,0,1,2.809,14.91c.462,5.276.512,13.542.561,20.832.03,4.971.055,9.266.21,11.4.384,5.386,7.634,49.888,10.621,58.847,1.354,4.066,5.111,10.767,9.46,18.524,5.072,9.049,11.384,20.311,16.156,31.516,6.786,15.937,39.746,86.325,54.154,117.015H95.355C80.5,302.456,48.726,234.562,42.05,218.892c-4.677-10.975-10.922-22.119-15.936-31.07-4.649-8.293-8.319-14.84-9.811-19.32-3.256-9.761-10.481-54.887-10.847-59.975-.163-2.285-.191-6.648-.22-11.7-.051-7.206-.1-15.373-.543-20.465A95.728,95.728,0,0,0,2,62.148,85.732,85.732,0,0,1,.1,53.065c-.8-6.414,3.421-21.454,3.874-23.02a16.651,16.651,0,0,0-.333-7.615C1.492,15.667,1.536,8.3,3.758,4.086A6.3,6.3,0,0,1,7.474.746c5.076-1.525,10.6-1.858,22.272,10.6C41.811,24.211,40.023,46.3,39.941,47.231a2.3,2.3,0,1,1-4.583-.4c.017-.208,1.7-20.954-8.969-32.342C15.7,3.081,11.869,4.231,8.8,5.152a2.14,2.14,0,0,0-.968,1.083c-1.366,2.584-1.758,8.649.2,14.8a21.112,21.112,0,0,1,.406,10.147C7.187,35.535,4.085,47.851,4.666,52.5a83.625,83.625,0,0,0,1.8,8.558" transform="translate(2.056 165.399)" fill="url(#linear-gradient)"/>
            <path id="패스_1099-3" data-name="패스 1099" d="M51.253,114.964.209,3.255A2.3,2.3,0,1,1,4.393,1.347L56.31,114.964Z" transform="translate(166.968 384.538)" fill="url(#linear-gradient)"/>
            <g id="그룹_1362-3" data-name="그룹 1362" opacity="0.13">
              <g id="그룹_1361-3" data-name="그룹 1361">
                <g id="그룹_1360-3" data-name="그룹 1360" clip-path="url(#clip-path)">
                  <path id="패스_1100-3" data-name="패스 1100" d="M225.39,499.5h-9.425l-48.5-106.141a4.166,4.166,0,0,1-1.1.145,4.284,4.284,0,0,1-3.244-7.083c5.839-6.777,9.294-13.8,10.265-20.867,2.986-21.754,10.708-66.425,18.567-79.785,5.758-9.787,8.77-26.973,8.993-35.507.07-2.681.384-7.991.779-14.712l.015-.227c.4-6.783.9-15.223,1.288-23.472.7-14.606.458-23.374-.713-26.053a11.044,11.044,0,0,0-8.1-5.946,11.514,11.514,0,0,0-2.195-.22,6.014,6.014,0,0,0-4.212,1.358c-2.754,2.676-7.7,19.52-10.7,33.6a4.362,4.362,0,0,1-.291.88,88.933,88.933,0,0,1,.5,11.349,4.283,4.283,0,0,1-4.281,4.082c-.085,0-.171,0-.261-.011a4.274,4.274,0,0,1-4.022-4.478,114.351,114.351,0,0,0-.84-14.053c-.578-5.987-1.12-11.6-.661-15.059.163-1.2.513-3.295,1.075-6.609,1.558-9.211,5.7-33.679,4.382-38.933-2.195-8.781-10.084-10.624-16.316-10.624-.555,0-1.122.016-1.7.043-4.656.235-6.6,1.193-8.512,10.411-1.15,5.537-2.736,16.467-3.392,21.117.156,3.025.3,5.713.408,7.677a4.289,4.289,0,0,1-4.042,4.513,2.753,2.753,0,0,1-.282.012,4.264,4.264,0,0,1-4.232-4.057c-.017-.3-.118-2.133-.259-4.825A4.145,4.145,0,0,1,134,173.65l.016-.109.171-1.222c-.586-11.344-1.245-25.329-1.079-28,.132-2.148.377-4.372.594-6.335.575-5.222,1.115-10.157-.136-13.078-1.958-4.568-4.069-6.382-8.362-7.186a26.038,26.038,0,0,0-4.68-.42c-2.9,0-8.066.5-10.172,3.874-3.161,5.06-4.661,13.693-4.895,17.083-2.725,39.479-7.737,44.133-9.622,45.885A4.285,4.285,0,1,1,90,177.858a9.1,9.1,0,0,0,1.576-3.268c-2.8-2.951-13.195-14.93-11.979-29.133.946-11.027-1.75-49.509-2.793-55.749-1.189-7.126-1.218-27.178-.811-32.467.058-.729.159-1.944.294-3.5.309-3.576.919-10.669,1.369-17.478l-.007.009c.54-3.243.9-6.76.381-8.676C76.9,23.439,78.785,14,70.1,12.861c-4.492-.584-8.687.38-11.329,6.043a73.059,73.059,0,0,0-3.639,10.771c-.036-.191-.083-.357-.113-.557-.291,1.371-.579,2.844-.858,4.37-.191.791-.3,1.28-.3,1.28l.043.212c-.627,3.639-1.191,7.6-1.569,11.851-.567,6.406-1.264,12.534-1.937,18.46l-.044.4c-1.143,10.033-2.216,19.493-2.6,29.227-.2,5.092.4,13.653.986,21.93.693,9.845,1.346,19.09.921,24.612-.247,3.234-.289,6.935-.329,10.853-.085,7.951-.183,16.964-2.071,25.059a57.482,57.482,0,0,0-1.131,13.862c0,5.753.011,11.7-1.953,19.552l-.191.779c-.034.689-.068,1.123-.079,1.241a4.028,4.028,0,0,1-.654,1.846c-3.69,15.933-10.082,48.513-10.14,48.808a4.276,4.276,0,0,1-5.04,3.388,4.281,4.281,0,0,1-3.371-5.028c.059-.312,7.162-36.478,10.746-51.407.136-4.844-.154-20.248-8.516-29.171-3.588-3.823-6.583-6.434-9.06-7.881.027.083.048.167.077.254,2.31,7.945,1.9,11.851-1.753,16.723a8.42,8.42,0,0,1-3.378,2.888,21.849,21.849,0,0,1-.466,3.813c-1.709,5.991-4.2,16.786-3.726,20.609a81.737,81.737,0,0,0,1.744,8.274,100.7,100.7,0,0,1,2.873,15.266c.463,5.3.518,13.513.567,20.76v.231c.031,4.936.054,9.2.206,11.276.384,5.358,7.569,49.506,10.524,58.361,1.3,3.894,5.01,10.515,9.307,18.183,5.112,9.118,11.444,20.42,16.253,31.711,6.789,15.936,40.111,87.1,54.123,116.948l.395.842H95.145c-17.185-36.63-46.486-99.29-52.937-114.431-4.637-10.88-10.851-21.968-15.843-30.882-4.7-8.382-8.41-15-9.961-19.659C13.127,324.7,5.829,279.2,5.458,274.068c-.168-2.415-.195-6.989-.224-11.832l0-.231c-.048-7.083-.1-15.113-.532-20.071a93.977,93.977,0,0,0-2.646-13.92l-.03-.118A85.2,85.2,0,0,1,.115,218.71c-.854-6.822,3.324-21.692,3.913-23.74a14.632,14.632,0,0,0-.3-6.539c-2.336-7.353-2.238-15.153.254-19.874a8.227,8.227,0,0,1,4.905-4.314,16.934,16.934,0,0,1,4.961-.827c5.608,0,11.567,3.69,19.326,11.971a33.2,33.2,0,0,1,4.681,6.435,49.5,49.5,0,0,1,1.049-6.4c1.678-7.178,1.768-15.689,1.848-23.2v-.216c.044-3.993.089-7.765.356-11.2.373-4.9-.286-14.248-.923-23.29-.606-8.534-1.229-17.357-1.006-22.933.4-10.043,1.494-19.646,2.647-29.816l1.988.094-1.972-.226c.677-5.973,1.378-12.147,1.949-18.558,1.59-17.912,6.434-33.257,8.019-36.819C54.549,3.115,60.9,0,70.684,0,82.672,0,84.992,11.513,86.108,17.044c.089.453.179.887.266,1.294.983,4.588-.161,20.08-1.546,36.137l-.011.132c-.126,1.463-.226,2.6-.278,3.292-.363,4.72-.332,24.081.72,30.4,1.165,6.986,3.874,46.289,2.881,57.895-.6,6.954,2.915,13.573,5.9,17.845,1.162-6.84,2.121-15.681,2.858-26.37.3-4.336,1.976-14.313,6.178-21.036,4.305-6.889,12.782-7.917,17.45-7.917a33.934,33.934,0,0,1,6.253.582c7.077,1.327,11.6,5.1,14.656,12.233,2.052,4.79,1.529,10.53.864,16.62,2.508-3.294,6.192-5.243,11.959-5.531.75-.038,1.474-.056,2.18-.056,18.322,0,23.293,11.971,24.578,17.119,1.15,4.6.144,14.742-2.149,29.573a16.9,16.9,0,0,1,2.963-4.406,14.489,14.489,0,0,1,10.229-3.779,19.917,19.917,0,0,1,3.8.377c6.426,1.26,11.906,5.445,14.3,10.92,1.848,4.233,2.249,12.614,1.423,29.9-.4,8.383-.919,17.16-1.3,23.57-.4,6.746-.712,12.074-.782,14.661-.243,9.425-3.648,28.538-10.174,39.627-6.648,11.306-14.086,52.006-17.462,76.607a46,46,0,0,1-8.088,19.856l51.225,112.1Z" transform="translate(-0.001 0)" fill="url(#linear-gradient)"/>
                </g>
              </g>
            </g>
          </g>
        </g>
      </g>
    </g>
    <g id="그룹_3320-2" data-name="그룹 3320" transform="matrix(0.5, -0.866, 0.866, 0.5, 1283.362, 1171.097)" opacity="0.45">
      <g id="그룹_1365-4" data-name="그룹 1365" clip-path="url(#clip-path)">
        <g id="그룹_1364-4" data-name="그룹 1364">
          <g id="그룹_1363-4" data-name="그룹 1363" clip-path="url(#clip-path)">
            <g id="그룹_1359-4" data-name="그룹 1359" transform="translate(4.054 4.054)" opacity="0.4">
              <g id="그룹_1358-4" data-name="그룹 1358">
                <g id="그룹_1357-4" data-name="그룹 1357" clip-path="url(#clip-path-3)">
                  <path id="패스_1088-4" data-name="패스 1088" d="M216.673,495.449H96.137L32.591,359.428,13.4,323.021,5.454,252.856,0,223.492l1.9-20.5,2.144-16.567L.57,171.8l6.7-8.321,10.986,2.318,17.3,21.394,3.656-9.792,4.415-45.722L41.785,90.789l1.4-46.439,7.28-32.435L59.731,0,73.155.5l7.024,12.882L76.546,54.52l4.13,46.953L79.246,150.9l12.115,15.882,6.1-37.041,6.32-17.817,13.687-2.478,10.44,3.084,5.3,4.634,2.5,10.065-2.059,27.495,10.816-20.351,13.9-.661,9.929,4.634,2.361,8.876.948,20.91-4.469,27.057,1.688,7.952,10.723-27.727,11.96-6.071,9.883,9.382,2.649,17.873-4.536,44.97-1.855,21.987-10.157,27.035-4.623,22.533-5.621,33.943s-6.966,26.265-8.29,29.574-1.985,11.916-1.985,11.916Z" transform="translate(0 0)" fill="url(#linear-gradient)"/>
                </g>
              </g>
            </g>
            <path id="패스_1089-4" data-name="패스 1089" d="M2.3,262.96A2.3,2.3,0,0,0,4.557,261.1c.073-.391,7.694-39.2,11.088-52.785,1.9-7.607,1.9-13.432,1.891-19.066a59.058,59.058,0,0,1,1.185-14.317c1.838-7.873,1.934-16.776,2.019-24.627.042-3.961.082-7.7.336-10.982.412-5.373-.234-14.549-.92-24.264-.59-8.354-1.2-16.993-.991-22.2.391-9.815,1.471-19.316,2.614-29.376.685-6.039,1.4-12.282,1.977-18.811C25.274,27.6,29.768,13.242,31.232,9.944,32.809,6.4,37.133,4.6,44.083,4.6c6.11,0,7.624,5.1,8.966,11.759.1.482.191.939.283,1.374.912,4.254-.962,26-1.667,34.188-.137,1.553-.238,2.762-.3,3.483-.4,5.221-.376,24.985.791,31.988,1.052,6.293,3.768,45.118,2.814,56.249-1.3,15.118,11.494,27.68,12.039,28.209a2.3,2.3,0,0,0,3.2-3.307c-.118-.114-11.761-11.591-10.657-24.51.986-11.491-1.7-50.464-2.857-57.4-1.1-6.574-1.122-25.953-.741-30.875.054-.716.157-1.911.289-3.443C57.553,37.175,58.76,21.11,57.83,16.769c-.089-.418-.177-.857-.271-1.316C56.47,10.051,54.443,0,44.083,0,35.148,0,29.415,2.717,27.028,8.075c-1.546,3.482-6.286,18.531-7.852,36.187-.576,6.469-1.284,12.685-1.966,18.7-1.152,10.147-2.242,19.728-2.642,29.714-.216,5.464.4,14.234,1,22.713.645,9.119,1.31,18.55.924,23.583-.269,3.432-.308,7.247-.352,11.288-.079,7.616-.172,16.246-1.9,23.631-1.319,5.65-1.312,10.367-1.306,15.367.005,5.354.012,10.891-1.752,17.946C7.759,220.9.119,259.826.044,260.216a2.3,2.3,0,0,0,1.811,2.7,2.442,2.442,0,0,0,.449.044" transform="translate(26.674 1.987)" fill="url(#linear-gradient)"/>
            <path id="패스_1090-4" data-name="패스 1090" d="M2.3,72.6a2.289,2.289,0,0,0,1.564-.615c1.565-1.451,6.323-5.87,8.994-44.564.193-2.825,1.566-12.2,5.193-18,3.32-5.315,12.187-5.235,16.9-4.353,4.943.93,7.6,3.193,9.819,8.356,1.459,3.4.888,8.587.285,14.08-.224,2.046-.455,4.163-.586,6.239-.244,3.933,1.46,34.98,1.534,36.3a2.267,2.267,0,0,0,2.42,2.171,2.3,2.3,0,0,0,2.171-2.425c-.49-8.911-1.723-32.718-1.534-35.763.122-1.968.349-4.027.567-6.019C50.3,21.9,50.933,16.123,49,11.613,46.194,5.067,42.245,1.758,35.8.548c-7.276-1.37-17.313-.5-21.65,6.438-4,6.392-5.595,15.956-5.883,20.12C5.908,61.325,1.905,67.531.735,68.615A2.3,2.3,0,0,0,2.3,72.6" transform="translate(90.687 110.697)" fill="url(#linear-gradient)"/>
            <path id="패스_1091-4" data-name="패스 1091" d="M37.088,94.369a2.3,2.3,0,0,0,2.3-2.189,118.362,118.362,0,0,0-.868-15.036c-.513-5.314-1.045-10.814-.684-13.52.15-1.122.541-3.441,1.038-6.38,2.868-16.956,5.8-35.551,4.28-41.629C41.9,10.625,36.98-.874,18.418.053,8.75.539,5.817,5.927,3.787,15.706c-1.514,7.28-3.672,23-3.765,23.669A2.3,2.3,0,0,0,4.579,40c.021-.165,2.23-16.232,3.711-23.361C10.2,7.43,12.332,4.965,18.647,4.649,29.493,4.107,36.606,8.4,38.689,16.729c1.413,5.652-2.627,29.544-4.353,39.749-.524,3.1-.9,5.337-1.062,6.539-.43,3.229.1,8.739.665,14.57a116.053,116.053,0,0,1,.852,14.371,2.3,2.3,0,0,0,2.187,2.408c.039,0,.075,0,.111,0" transform="translate(136.015 134.544)" fill="url(#linear-gradient)"/>
            <path id="패스_1092-4" data-name="패스 1092" d="M2.3,218.468a2.294,2.294,0,0,0,1.742-.8c6.687-7.749,10.657-15.917,11.8-24.268,3.4-24.761,10.92-65.787,17.719-77.344,6.348-10.785,9.66-29.453,9.9-38.67.07-2.606.386-7.953.784-14.724.4-6.813.9-15.29,1.295-23.548.8-16.73.434-25.133-1.259-29C42.144,5.219,37.216,1.477,31.42.339c-4.85-.951-9.433.125-12.266,2.877C13.424,8.783,7.282,36.965,6.6,40.161a2.3,2.3,0,1,0,4.5.959c2.463-11.541,7.7-31.143,11.262-34.6,1.752-1.7,4.81-2.322,8.175-1.66a13.033,13.033,0,0,1,9.534,7.1c1.952,4.46,1.173,20.792.878,26.941-.391,8.234-.891,16.695-1.292,23.5s-.72,12.2-.788,14.875c-.23,8.74-3.331,26.37-9.267,36.461-7.7,13.086-15.345,57.431-18.312,79.05-1.024,7.455-4.633,14.82-10.73,21.891a2.3,2.3,0,0,0,1.741,3.8" transform="translate(164.135 173.053)" fill="url(#linear-gradient)"/>
            <path id="패스_1093-4" data-name="패스 1093" d="M12.333,30.339A9.575,9.575,0,0,0,20.2,26.305C22.292,23.547,23.178,3.117,23.271.8a.766.766,0,0,0-1.53-.06c-.349,8.578-1.406,22.858-2.762,24.643C14.485,31.3,7.743,27.76,6.99,27.337c-3.024-1.7-4.461-3.183-4.981-7.474-.751-6.194-.383-17.4-.379-17.516a.766.766,0,0,0-.741-.791A.737.737,0,0,0,.1,2.3c-.016.463-.377,11.438.388,17.749.592,4.889,2.4,6.742,5.752,8.626a12.67,12.67,0,0,0,6.094,1.666" transform="translate(56.474 8.098)" fill="url(#linear-gradient)"/>
            <path id="패스_1094-4" data-name="패스 1094" d="M3.48,24.43h.107c1.185-.046,2.352-.853,3.565-2.473,3.24-4.314,3.558-7.674,1.436-14.976C6.872,1.066,6.1.471,5.045.19a.655.655,0,0,1-.18-.06A.766.766,0,1,0,4.015,1.4a2.022,2.022,0,0,0,.637.267c.279.075.862.228,2.463,5.738,1.983,6.812,1.727,9.744-1.189,13.63-.895,1.191-1.722,1.834-2.4,1.858-.635.034-1.028-.422-1.426-.881a2.244,2.244,0,0,0-.382-.368,1.06,1.06,0,0,0-.993-.137,1.244,1.244,0,0,0-.7.852.766.766,0,0,0,.557.928.758.758,0,0,0,.543-.063,3.236,3.236,0,0,0,2.357,1.2" transform="translate(7.519 167.189)" fill="url(#linear-gradient)"/>
            <path id="패스_1095-4" data-name="패스 1095" d="M.766,3.068A.7.7,0,0,0,.9,3.055c.085-.016,8.41-1.523,12.128-1.523a12.838,12.838,0,0,1,5.577,1.06.766.766,0,0,0,.733-1.346A14,14,0,0,0,13.032,0C9.174,0,.975,1.482.629,1.546A.767.767,0,0,0,.766,3.068" transform="translate(53.889 108.358)" fill="url(#linear-gradient)"/>
            <path id="패스_1096-4" data-name="패스 1096" d="M8.816,4.026c4.339,0,8.606-.136,13.1-1.773A.766.766,0,1,0,21.394.814C17.131,2.362,13.012,2.492,8.816,2.492A14.417,14.417,0,0,1,1.215.143a.768.768,0,0,0-.9,1.247,15.768,15.768,0,0,0,8.5,2.637" transform="translate(51.015 117.175)" fill="url(#linear-gradient)"/>
            <path id="패스_1097-4" data-name="패스 1097" d="M20.626,8.119a.762.762,0,0,0,.473-.163.77.77,0,0,0,.13-1.077A15.769,15.769,0,0,0,13.8,1.994C9.626.789,5.483-.26.715.057A.771.771,0,0,0,0,.875a.76.76,0,0,0,.817.713c4.524-.3,8.52.711,12.551,1.878a14.445,14.445,0,0,1,6.653,4.36.757.757,0,0,0,.6.293" transform="translate(175.856 234.775)" fill="url(#linear-gradient)"/>
            <path id="패스_1098-4" data-name="패스 1098" d="M6.465,61.055a99.084,99.084,0,0,1,2.809,14.91c.462,5.276.512,13.542.561,20.832.03,4.971.055,9.266.21,11.4.384,5.386,7.634,49.888,10.621,58.847,1.354,4.066,5.111,10.767,9.46,18.524,5.072,9.049,11.384,20.311,16.156,31.516,6.786,15.937,39.746,86.325,54.154,117.015H95.355C80.5,302.456,48.726,234.562,42.05,218.892c-4.677-10.975-10.922-22.119-15.936-31.07-4.649-8.293-8.319-14.84-9.811-19.32-3.256-9.761-10.481-54.887-10.847-59.975-.163-2.285-.191-6.648-.22-11.7-.051-7.206-.1-15.373-.543-20.465A95.728,95.728,0,0,0,2,62.148,85.732,85.732,0,0,1,.1,53.065c-.8-6.414,3.421-21.454,3.874-23.02a16.651,16.651,0,0,0-.333-7.615C1.492,15.667,1.536,8.3,3.758,4.086A6.3,6.3,0,0,1,7.474.746c5.076-1.525,10.6-1.858,22.272,10.6C41.811,24.211,40.023,46.3,39.941,47.231a2.3,2.3,0,1,1-4.583-.4c.017-.208,1.7-20.954-8.969-32.342C15.7,3.081,11.869,4.231,8.8,5.152a2.14,2.14,0,0,0-.968,1.083c-1.366,2.584-1.758,8.649.2,14.8a21.112,21.112,0,0,1,.406,10.147C7.187,35.535,4.085,47.851,4.666,52.5a83.625,83.625,0,0,0,1.8,8.558" transform="translate(2.056 165.399)" fill="url(#linear-gradient)"/>
            <path id="패스_1099-4" data-name="패스 1099" d="M51.253,114.964.209,3.255A2.3,2.3,0,1,1,4.393,1.347L56.31,114.964Z" transform="translate(166.968 384.538)" fill="url(#linear-gradient)"/>
            <g id="그룹_1362-4" data-name="그룹 1362" opacity="0.13">
              <g id="그룹_1361-4" data-name="그룹 1361">
                <g id="그룹_1360-4" data-name="그룹 1360" clip-path="url(#clip-path)">
                  <path id="패스_1100-4" data-name="패스 1100" d="M225.39,499.5h-9.425l-48.5-106.141a4.166,4.166,0,0,1-1.1.145,4.284,4.284,0,0,1-3.244-7.083c5.839-6.777,9.294-13.8,10.265-20.867,2.986-21.754,10.708-66.425,18.567-79.785,5.758-9.787,8.77-26.973,8.993-35.507.07-2.681.384-7.991.779-14.712l.015-.227c.4-6.783.9-15.223,1.288-23.472.7-14.606.458-23.374-.713-26.053a11.044,11.044,0,0,0-8.1-5.946,11.514,11.514,0,0,0-2.195-.22,6.014,6.014,0,0,0-4.212,1.358c-2.754,2.676-7.7,19.52-10.7,33.6a4.362,4.362,0,0,1-.291.88,88.933,88.933,0,0,1,.5,11.349,4.283,4.283,0,0,1-4.281,4.082c-.085,0-.171,0-.261-.011a4.274,4.274,0,0,1-4.022-4.478,114.351,114.351,0,0,0-.84-14.053c-.578-5.987-1.12-11.6-.661-15.059.163-1.2.513-3.295,1.075-6.609,1.558-9.211,5.7-33.679,4.382-38.933-2.195-8.781-10.084-10.624-16.316-10.624-.555,0-1.122.016-1.7.043-4.656.235-6.6,1.193-8.512,10.411-1.15,5.537-2.736,16.467-3.392,21.117.156,3.025.3,5.713.408,7.677a4.289,4.289,0,0,1-4.042,4.513,2.753,2.753,0,0,1-.282.012,4.264,4.264,0,0,1-4.232-4.057c-.017-.3-.118-2.133-.259-4.825A4.145,4.145,0,0,1,134,173.65l.016-.109.171-1.222c-.586-11.344-1.245-25.329-1.079-28,.132-2.148.377-4.372.594-6.335.575-5.222,1.115-10.157-.136-13.078-1.958-4.568-4.069-6.382-8.362-7.186a26.038,26.038,0,0,0-4.68-.42c-2.9,0-8.066.5-10.172,3.874-3.161,5.06-4.661,13.693-4.895,17.083-2.725,39.479-7.737,44.133-9.622,45.885A4.285,4.285,0,1,1,90,177.858a9.1,9.1,0,0,0,1.576-3.268c-2.8-2.951-13.195-14.93-11.979-29.133.946-11.027-1.75-49.509-2.793-55.749-1.189-7.126-1.218-27.178-.811-32.467.058-.729.159-1.944.294-3.5.309-3.576.919-10.669,1.369-17.478l-.007.009c.54-3.243.9-6.76.381-8.676C76.9,23.439,78.785,14,70.1,12.861c-4.492-.584-8.687.38-11.329,6.043a73.059,73.059,0,0,0-3.639,10.771c-.036-.191-.083-.357-.113-.557-.291,1.371-.579,2.844-.858,4.37-.191.791-.3,1.28-.3,1.28l.043.212c-.627,3.639-1.191,7.6-1.569,11.851-.567,6.406-1.264,12.534-1.937,18.46l-.044.4c-1.143,10.033-2.216,19.493-2.6,29.227-.2,5.092.4,13.653.986,21.93.693,9.845,1.346,19.09.921,24.612-.247,3.234-.289,6.935-.329,10.853-.085,7.951-.183,16.964-2.071,25.059a57.482,57.482,0,0,0-1.131,13.862c0,5.753.011,11.7-1.953,19.552l-.191.779c-.034.689-.068,1.123-.079,1.241a4.028,4.028,0,0,1-.654,1.846c-3.69,15.933-10.082,48.513-10.14,48.808a4.276,4.276,0,0,1-5.04,3.388,4.281,4.281,0,0,1-3.371-5.028c.059-.312,7.162-36.478,10.746-51.407.136-4.844-.154-20.248-8.516-29.171-3.588-3.823-6.583-6.434-9.06-7.881.027.083.048.167.077.254,2.31,7.945,1.9,11.851-1.753,16.723a8.42,8.42,0,0,1-3.378,2.888,21.849,21.849,0,0,1-.466,3.813c-1.709,5.991-4.2,16.786-3.726,20.609a81.737,81.737,0,0,0,1.744,8.274,100.7,100.7,0,0,1,2.873,15.266c.463,5.3.518,13.513.567,20.76v.231c.031,4.936.054,9.2.206,11.276.384,5.358,7.569,49.506,10.524,58.361,1.3,3.894,5.01,10.515,9.307,18.183,5.112,9.118,11.444,20.42,16.253,31.711,6.789,15.936,40.111,87.1,54.123,116.948l.395.842H95.145c-17.185-36.63-46.486-99.29-52.937-114.431-4.637-10.88-10.851-21.968-15.843-30.882-4.7-8.382-8.41-15-9.961-19.659C13.127,324.7,5.829,279.2,5.458,274.068c-.168-2.415-.195-6.989-.224-11.832l0-.231c-.048-7.083-.1-15.113-.532-20.071a93.977,93.977,0,0,0-2.646-13.92l-.03-.118A85.2,85.2,0,0,1,.115,218.71c-.854-6.822,3.324-21.692,3.913-23.74a14.632,14.632,0,0,0-.3-6.539c-2.336-7.353-2.238-15.153.254-19.874a8.227,8.227,0,0,1,4.905-4.314,16.934,16.934,0,0,1,4.961-.827c5.608,0,11.567,3.69,19.326,11.971a33.2,33.2,0,0,1,4.681,6.435,49.5,49.5,0,0,1,1.049-6.4c1.678-7.178,1.768-15.689,1.848-23.2v-.216c.044-3.993.089-7.765.356-11.2.373-4.9-.286-14.248-.923-23.29-.606-8.534-1.229-17.357-1.006-22.933.4-10.043,1.494-19.646,2.647-29.816l1.988.094-1.972-.226c.677-5.973,1.378-12.147,1.949-18.558,1.59-17.912,6.434-33.257,8.019-36.819C54.549,3.115,60.9,0,70.684,0,82.672,0,84.992,11.513,86.108,17.044c.089.453.179.887.266,1.294.983,4.588-.161,20.08-1.546,36.137l-.011.132c-.126,1.463-.226,2.6-.278,3.292-.363,4.72-.332,24.081.72,30.4,1.165,6.986,3.874,46.289,2.881,57.895-.6,6.954,2.915,13.573,5.9,17.845,1.162-6.84,2.121-15.681,2.858-26.37.3-4.336,1.976-14.313,6.178-21.036,4.305-6.889,12.782-7.917,17.45-7.917a33.934,33.934,0,0,1,6.253.582c7.077,1.327,11.6,5.1,14.656,12.233,2.052,4.79,1.529,10.53.864,16.62,2.508-3.294,6.192-5.243,11.959-5.531.75-.038,1.474-.056,2.18-.056,18.322,0,23.293,11.971,24.578,17.119,1.15,4.6.144,14.742-2.149,29.573a16.9,16.9,0,0,1,2.963-4.406,14.489,14.489,0,0,1,10.229-3.779,19.917,19.917,0,0,1,3.8.377c6.426,1.26,11.906,5.445,14.3,10.92,1.848,4.233,2.249,12.614,1.423,29.9-.4,8.383-.919,17.16-1.3,23.57-.4,6.746-.712,12.074-.782,14.661-.243,9.425-3.648,28.538-10.174,39.627-6.648,11.306-14.086,52.006-17.462,76.607a46,46,0,0,1-8.088,19.856l51.225,112.1Z" transform="translate(-0.001 0)" fill="url(#linear-gradient)"/>
                </g>
              </g>
            </g>
          </g>
        </g>
      </g>
    </g>
  </g>
</svg>
