<svg xmlns="http://www.w3.org/2000/svg" width="107.925" height="113.481" viewBox="0 0 107.925 113.481">
  <g id="ico_tour_map" transform="translate(-1652.075 -408.191)">
    <path id="패스_67823" data-name="패스 67823" d="M-5531.592,3577.128l-30.356-9.381-19.352,7.151-4.159-11.256,23.167-8.561,30.234,9.343,24.168-9.459,25.792,10.234-4.426,11.154-21.4-8.49Z" transform="translate(7240 -3060)" fill="#f4e402"/>
    <g id="그룹_8914" data-name="그룹 8914" transform="translate(1646.369 408.591)">
      <g id="그룹_8885" data-name="그룹 8885" transform="translate(1.5 0)">
        <path id="패스_67817" data-name="패스 67817" d="M35.291,42.163a17.2,17.2,0,1,1,17.2-17.206,17.226,17.226,0,0,1-17.2,17.206m0-28.681A11.476,11.476,0,1,0,46.766,24.957,11.488,11.488,0,0,0,35.291,13.483" transform="translate(22.247 11.1)" fill="#fff"/>
        <path id="패스_67817_-_윤곽선" data-name="패스 67817 - 윤곽선" d="M35.291,42.563a17.6,17.6,0,1,1,17.6-17.606A17.625,17.625,0,0,1,35.291,42.563Zm0-34.409a16.8,16.8,0,1,0,16.8,16.8A16.822,16.822,0,0,0,35.291,8.154Zm0,28.681A11.876,11.876,0,1,1,47.166,24.957,11.889,11.889,0,0,1,35.291,36.835Zm0-22.952A11.076,11.076,0,1,0,46.366,24.957,11.087,11.087,0,0,0,35.291,13.883Z" transform="translate(22.247 11.1)" fill="#fff"/>
        <path id="패스_67818" data-name="패스 67818" d="M45.955,87.59a5.491,5.491,0,0,1-4.246-1.831L21.7,63.184A45.546,45.546,0,0,1,12.477,46.92a39.984,39.984,0,0,1-1.532-17.614A33.838,33.838,0,0,1,31.5,2.781C43.154-1.848,55.507-.657,65.386,6.049A35.169,35.169,0,0,1,80.827,35.17c0,8.737-2.388,14.748-10.21,25.729l-.122.156L50.245,85.706a5.488,5.488,0,0,1-4.289,1.884m.131-5.527h0Zm-.18-.2a.332.332,0,0,0,.085,0L66.006,57.494C73.783,46.569,75.1,41.769,75.1,35.17A29.449,29.449,0,0,0,62.169,10.789C53.885,5.167,43.475,4.187,33.61,8.1a28.1,28.1,0,0,0-17,22.062,34.251,34.251,0,0,0,1.345,15.069,39.774,39.774,0,0,0,8.058,14.183Z" transform="translate(11.464 0)" fill="#fff"/>
        <path id="패스_67818_-_윤곽선" data-name="패스 67818 - 윤곽선" d="M45.955,87.99a5.9,5.9,0,0,1-4.548-1.969L21.392,63.445a45.991,45.991,0,0,1-9.3-16.408A40.385,40.385,0,0,1,10.55,29.245,34.242,34.242,0,0,1,31.35,2.41,38.719,38.719,0,0,1,45.684-.4,35.558,35.558,0,0,1,81.227,35.17c0,8.831-2.4,14.9-10.284,25.961l-.011.014-.128.163L50.554,85.96A5.89,5.89,0,0,1,45.955,87.99ZM22,62.921,42.015,85.5a5.433,5.433,0,0,0,7.921-.05L70.183,60.8l.113-.145C78.059,49.76,80.427,43.8,80.427,35.17A34.758,34.758,0,0,0,45.684.4,37.922,37.922,0,0,0,31.645,3.153a33.44,33.44,0,0,0-20.3,26.212A39.582,39.582,0,0,0,12.86,46.8,45.2,45.2,0,0,0,22,62.921ZM46.106,82.463h-.019v-.215l-.029,0a.613.613,0,0,1-.1.008c-.032,0-.06,0-.08,0l-.16-.013-.108-.12-19.9-22.446a40.175,40.175,0,0,1-8.137-14.327,34.643,34.643,0,0,1-1.358-15.246A28.5,28.5,0,0,1,33.463,7.732a32.966,32.966,0,0,1,12.2-2.395A29.808,29.808,0,0,1,75.5,35.17c0,6.693-1.323,11.538-9.166,22.556l-.017.022-20.11,24.48-.1.017ZM26.313,59.155,45.939,81.293,65.688,57.251C73.4,46.42,74.7,41.684,74.7,35.17A29.008,29.008,0,0,0,45.663,6.137,32.169,32.169,0,0,0,33.758,8.476,27.7,27.7,0,0,0,17,30.226a33.841,33.841,0,0,0,1.331,14.891A39.379,39.379,0,0,0,26.313,59.155Z" transform="translate(11.464 0)" fill="#fff"/>
        <path id="패스_67819" data-name="패스 67819" d="M21.811,16.121H1.5V81.144l23.911-8.575,29.61,8.575,22.6-8.575,25.8,8.575V16.121H82.307" transform="translate(5.706 27.674)" fill="rgba(0,0,0,0)"/>
        <path id="패스_67819_-_윤곽선" data-name="패스 67819 - 윤곽선" d="M-1.5,85.407V13.121H21.811v6H4.5v57.76l20.813-7.464,29.581,8.566,22.664-8.6,22.867,7.6V19.121H82.307v-6h24.118V85.3l-28.734-9.55L55.149,84.3,25.51,75.721Z" transform="translate(5.706 27.674)" fill="#fff"/>
      </g>
    </g>
  </g>
</svg>
