<svg xmlns="http://www.w3.org/2000/svg" width="107.925" height="113.678" viewBox="0 0 107.925 113.678">
  <g id="그룹_24624" data-name="그룹 24624" transform="translate(-1735.075 -407.994)">
    <path id="패스_67823" data-name="패스 67823" d="M-5583.379,3569.27l21.259-7.856,30.3,9.362,23.92-9.362,23.594,9.362" transform="translate(7323 -3060)" fill="none" stroke="#00c1a9" stroke-width="12"/>
    <g id="그룹_8914" data-name="그룹 8914" transform="translate(1729.369 408.591)">
      <g id="그룹_8885" data-name="그룹 8885" transform="translate(1.5 0)">
        <path id="패스_67817" data-name="패스 67817" d="M35.291,42.163a17.2,17.2,0,1,1,17.2-17.206,17.226,17.226,0,0,1-17.2,17.206m0-28.681A11.476,11.476,0,1,0,46.766,24.957,11.488,11.488,0,0,0,35.291,13.483" transform="translate(22.247 11.1)" fill="#fff" stroke="#fff" stroke-width="0.8"/>
        <path id="패스_67818" data-name="패스 67818" d="M45.955,87.59a5.491,5.491,0,0,1-4.246-1.831L21.7,63.184A45.546,45.546,0,0,1,12.477,46.92a39.984,39.984,0,0,1-1.532-17.614A33.838,33.838,0,0,1,31.5,2.781C43.154-1.848,55.507-.657,65.386,6.049A35.169,35.169,0,0,1,80.827,35.17c0,8.737-2.388,14.748-10.21,25.729l-.122.156L50.245,85.706a5.488,5.488,0,0,1-4.289,1.884m.131-5.527h0Zm-.18-.2a.332.332,0,0,0,.085,0L66.006,57.494C73.783,46.569,75.1,41.769,75.1,35.17A29.449,29.449,0,0,0,62.169,10.789C53.885,5.167,43.475,4.187,33.61,8.1a28.1,28.1,0,0,0-17,22.062,34.251,34.251,0,0,0,1.345,15.069,39.774,39.774,0,0,0,8.058,14.183Z" transform="translate(11.464 0)" fill="#fff" stroke="#fff" stroke-width="0.8"/>
        <path id="패스_67819" data-name="패스 67819" d="M21.811,16.121H1.5V81.144l23.911-8.575,29.61,8.575,22.6-8.575,25.8,8.575V16.121H82.307" transform="translate(5.706 27.674)" fill="rgba(0,0,0,0)" stroke="#fff" stroke-miterlimit="10" stroke-width="6"/>
      </g>
    </g>
  </g>
</svg>
